<?xml version="1.0" encoding="UTF-8" standalone="no"?>
<!DOCTYPE svg PUBLIC "-//W3C//DTD SVG 1.1//EN"
 "http://www.w3.org/Graphics/SVG/1.1/DTD/svg11.dtd">
<!-- Generated by graphviz version 12.1.0 (0)
 -->
<!-- Pages: 1 -->
<svg width="3397pt" height="2103pt"
 viewBox="0.00 0.00 3397.48 2103.14" xmlns="http://www.w3.org/2000/svg" xmlns:xlink="http://www.w3.org/1999/xlink">
<g id="graph0" class="graph" transform="scale(1 1) rotate(0) translate(4 2099.14)">
<polygon fill="white" stroke="none" points="-4,4 -4,-2099.14 3393.48,-2099.14 3393.48,4 -4,4"/>
<!-- 0 -->
<g id="node1" class="node">
<title>0</title>
<ellipse fill="none" stroke="black" cx="2304.85" cy="-2077.14" rx="184.31" ry="18"/>
<text text-anchor="middle" x="2304.85" y="-2072.47" font-family="Times,serif" font-size="14.00">soragoto &lt;soragoto@soragoto.io&gt;</text>
</g>
<!-- 20 -->
<g id="node21" class="node">
<title>20</title>
<ellipse fill="none" stroke="black" cx="2090.62" cy="-1303.97" rx="179.05" ry="18"/>
<text text-anchor="middle" x="2090.62" y="-1299.29" font-family="Times,serif" font-size="14.00">Cryolitia &lt;Cryolitia@gmail.com&gt;</text>
</g>
<!-- 0&#45;&gt;20 -->
<g id="edge38" class="edge">
<title>0&#45;&gt;20</title>
<path fill="none" stroke="black" d="M2302.1,-2058.95C2279.98,-1957.23 2142.16,-1459.07 2101.58,-1333"/>
<polygon fill="black" stroke="black" points="2104.99,-1332.15 2098.54,-1323.74 2098.33,-1334.33 2104.99,-1332.15"/>
<text text-anchor="middle" x="2175.59" y="-1699.92" font-family="Times,serif" font-size="14.00">Default</text>
</g>
<!-- 21 -->
<g id="node22" class="node">
<title>21</title>
<ellipse fill="none" stroke="black" cx="1723.67" cy="-1588.33" rx="404.75" ry="18"/>
<text text-anchor="middle" x="1723.67" y="-1583.65" font-family="Times,serif" font-size="14.00">Cryolitia (https://github.com/project&#45;trans only) &lt;cryolitia@project&#45;trans.org&gt;</text>
</g>
<!-- 0&#45;&gt;21 -->
<g id="edge44" class="edge">
<title>0&#45;&gt;21</title>
<path fill="none" stroke="black" d="M2283.12,-2058.87C2194.21,-1984.09 1857.84,-1701.17 1754.24,-1614.03"/>
<polygon fill="black" stroke="black" points="1756.57,-1611.42 1746.66,-1607.67 1752.06,-1616.78 1756.57,-1611.42"/>
<text text-anchor="middle" x="1992.43" y="-1840.4" font-family="Times,serif" font-size="14.00">Default</text>
</g>
<!-- 1 -->
<g id="node2" class="node">
<title>1</title>
<ellipse fill="none" stroke="black" cx="774.74" cy="-2076.56" rx="196.94" ry="18"/>
<text text-anchor="middle" x="774.74" y="-2071.88" font-family="Times,serif" font-size="14.00">Estela ad Astra &lt;work@estela.moe&gt;</text>
</g>
<!-- 2 -->
<g id="node3" class="node">
<title>2</title>
<ellipse fill="none" stroke="red" cx="158.43" cy="-1214.77" rx="125.92" ry="18"/>
<text text-anchor="middle" x="158.43" y="-1210.1" font-family="Times,serif" font-size="14.00">saeziae &lt;i@estela.cn&gt;</text>
</g>
<!-- 3 -->
<g id="node4" class="node">
<title>3</title>
<ellipse fill="none" stroke="black" cx="1201.32" cy="-1067.34" rx="175.37" ry="18"/>
<text text-anchor="middle" x="1201.32" y="-1062.66" font-family="Times,serif" font-size="14.00">Estela ad Astra &lt;i@estela.moe&gt;</text>
</g>
<!-- 3&#45;&gt;1 -->
<g id="edge2" class="edge">
<title>3&#45;&gt;1</title>
<path fill="none" stroke="black" d="M1193.56,-1085.72C1142.05,-1207.56 849.97,-1898.57 786.79,-2048.05"/>
<polygon fill="black" stroke="black" points="783.74,-2046.27 783.07,-2056.84 790.19,-2048.99 783.74,-2046.27"/>
<text text-anchor="middle" x="963.92" y="-1570.83" font-family="Times,serif" font-size="14.00">Careful</text>
</g>
<!-- 3&#45;&gt;2 -->
<g id="edge3" class="edge">
<title>3&#45;&gt;2</title>
<path fill="none" stroke="black" d="M1096.55,-1082.15C895.77,-1110.54 459.15,-1172.26 260.5,-1200.34"/>
<polygon fill="black" stroke="black" points="260.12,-1196.86 250.71,-1201.73 261.1,-1203.79 260.12,-1196.86"/>
<text text-anchor="middle" x="652.28" y="-1145.2" font-family="Times,serif" font-size="14.00">Careful</text>
</g>
<!-- 4 -->
<g id="node5" class="node">
<title>4</title>
<ellipse fill="none" stroke="red" cx="169.58" cy="-784.16" rx="169.58" ry="18"/>
<text text-anchor="middle" x="169.58" y="-779.48" font-family="Times,serif" font-size="14.00">Estela ad Astra &lt;i@estela.cat&gt;</text>
</g>
<!-- 3&#45;&gt;4 -->
<g id="edge7" class="edge">
<title>3&#45;&gt;4</title>
<path fill="none" stroke="black" d="M1138.72,-1050.16C958.1,-1000.58 436.59,-857.44 243.04,-804.32"/>
<polygon fill="black" stroke="black" points="244.17,-801 233.6,-801.73 242.32,-807.75 244.17,-801"/>
<text text-anchor="middle" x="664.63" y="-931.19" font-family="Times,serif" font-size="14.00">Careful</text>
</g>
<!-- 5 -->
<g id="node6" class="node">
<title>5</title>
<ellipse fill="none" stroke="black" cx="1559.31" cy="-917.53" rx="165.9" ry="18"/>
<text text-anchor="middle" x="1559.31" y="-912.85" font-family="Times,serif" font-size="14.00">Estela ad Astra &lt;i@estela.cn&gt;</text>
</g>
<!-- 3&#45;&gt;5 -->
<g id="edge8" class="edge">
<title>3&#45;&gt;5</title>
<path fill="none" stroke="black" d="M1244.15,-1049.42C1309.73,-1021.97 1434.91,-969.59 1506.18,-939.76"/>
<polygon fill="black" stroke="black" points="1507.45,-943.03 1515.32,-935.94 1504.74,-936.57 1507.45,-943.03"/>
<text text-anchor="middle" x="1348.92" y="-998.54" font-family="Times,serif" font-size="14.00">Careful</text>
</g>
<!-- 6 -->
<g id="node7" class="node">
<title>6</title>
<ellipse fill="none" stroke="black" cx="344.97" cy="-1669.84" rx="175.37" ry="18"/>
<text text-anchor="middle" x="344.97" y="-1665.16" font-family="Times,serif" font-size="14.00">Estela ad Astra &lt;jo@estela.cat&gt;</text>
</g>
<!-- 3&#45;&gt;6 -->
<g id="edge12" class="edge">
<title>3&#45;&gt;6</title>
<path fill="none" stroke="black" d="M1175.69,-1085.37C1052.59,-1171.98 522.15,-1545.18 380.08,-1645.13"/>
<polygon fill="black" stroke="black" points="378.32,-1642.1 372.15,-1650.71 382.34,-1647.82 378.32,-1642.1"/>
<text text-anchor="middle" x="751.64" y="-1369.2" font-family="Times,serif" font-size="14.00">Careful</text>
</g>
<!-- 8 -->
<g id="node9" class="node">
<title>8</title>
<ellipse fill="none" stroke="black" cx="1857.24" cy="-771.72" rx="234.29" ry="18"/>
<text text-anchor="middle" x="1857.24" y="-767.04" font-family="Times,serif" font-size="14.00">Coelacanthus &lt;coelacanthus@outlook.com&gt;</text>
</g>
<!-- 3&#45;&gt;8 -->
<g id="edge16" class="edge">
<title>3&#45;&gt;8</title>
<path fill="none" stroke="black" d="M1240.88,-1049.51C1354.43,-998.34 1681.33,-851 1807.1,-794.32"/>
<polygon fill="black" stroke="black" points="1808.16,-797.68 1815.84,-790.38 1805.29,-791.3 1808.16,-797.68"/>
<text text-anchor="middle" x="1497.74" y="-925.87" font-family="Times,serif" font-size="14.00">Careful</text>
</g>
<!-- 9 -->
<g id="node10" class="node">
<title>9</title>
<ellipse fill="none" stroke="red" cx="1505.29" cy="-513.6" rx="201.15" ry="18"/>
<text text-anchor="middle" x="1505.29" y="-508.93" font-family="Times,serif" font-size="14.00">Coelacanthus &lt;i@coelacanthus.moe&gt;</text>
</g>
<!-- 3&#45;&gt;9 -->
<g id="edge19" class="edge">
<title>3&#45;&gt;9</title>
<path fill="none" stroke="black" d="M1211.44,-1048.92C1256.11,-967.53 1435.95,-639.92 1489.91,-541.62"/>
<polygon fill="black" stroke="black" points="1492.82,-543.59 1494.56,-533.14 1486.68,-540.22 1492.82,-543.59"/>
<text text-anchor="middle" x="1324.42" y="-799.22" font-family="Times,serif" font-size="14.00">Careful</text>
</g>
<!-- 10 -->
<g id="node11" class="node">
<title>10</title>
<ellipse fill="none" stroke="black" cx="2188.32" cy="-869.51" rx="345.83" ry="18"/>
<text text-anchor="middle" x="2188.32" y="-864.84" font-family="Times,serif" font-size="14.00">Liu, Hongwu (Name on Passport) &lt;CoelacanthusHex@gmail.com&gt;</text>
</g>
<!-- 3&#45;&gt;10 -->
<g id="edge22" class="edge">
<title>3&#45;&gt;10</title>
<path fill="none" stroke="black" d="M1282.93,-1050.98C1462.69,-1014.95 1892.32,-928.84 2088.07,-889.6"/>
<polygon fill="black" stroke="black" points="2088.6,-893.07 2097.72,-887.67 2087.23,-886.2 2088.6,-893.07"/>
<text text-anchor="middle" x="1659.25" y="-974.24" font-family="Times,serif" font-size="14.00">Careful</text>
</g>
<!-- 11 -->
<g id="node12" class="node">
<title>11</title>
<ellipse fill="none" stroke="black" cx="1765.18" cy="-380.6" rx="256.39" ry="18"/>
<text text-anchor="middle" x="1765.18" y="-375.92" font-family="Times,serif" font-size="14.00">Celeste Liu (For AOSC) &lt;coelacanthus@aosc.io&gt;</text>
</g>
<!-- 3&#45;&gt;11 -->
<g id="edge25" class="edge">
<title>3&#45;&gt;11</title>
<path fill="none" stroke="black" d="M1216.41,-1048.97C1294.17,-954.26 1649.77,-521.16 1742.83,-407.81"/>
<polygon fill="black" stroke="black" points="1745.45,-410.14 1749.09,-400.19 1740.04,-405.7 1745.45,-410.14"/>
<text text-anchor="middle" x="1453.37" y="-732.34" font-family="Times,serif" font-size="14.00">Careful</text>
</g>
<!-- 12 -->
<g id="node13" class="node">
<title>12</title>
<ellipse fill="none" stroke="black" cx="2096.31" cy="-507.09" rx="247.45" ry="18"/>
<text text-anchor="middle" x="2096.31" y="-502.42" font-family="Times,serif" font-size="14.00">Coelacanthus &lt;CoelacanthusHex@gmail.com&gt;</text>
</g>
<!-- 3&#45;&gt;12 -->
<g id="edge27" class="edge">
<title>3&#45;&gt;12</title>
<path fill="none" stroke="black" d="M1235.43,-1049.23C1377.32,-966.66 1919.86,-627.09 2062.05,-531.91"/>
<polygon fill="black" stroke="black" points="2063.99,-534.83 2070.33,-526.34 2060.08,-529.02 2063.99,-534.83"/>
<text text-anchor="middle" x="1622.49" y="-794.52" font-family="Times,serif" font-size="14.00">Careful</text>
</g>
<!-- 3&#45;&gt;20 -->
<g id="edge41" class="edge">
<title>3&#45;&gt;20</title>
<path fill="none" stroke="black" d="M1254.07,-1084.93C1401.31,-1128.39 1817.96,-1239.53 2001.7,-1284.68"/>
<polygon fill="black" stroke="black" points="2000.65,-1288.03 2011.2,-1287.01 2002.32,-1281.23 2000.65,-1288.03"/>
<text text-anchor="middle" x="1603.89" y="-1188.75" font-family="Times,serif" font-size="14.00">Casual</text>
</g>
<!-- 3&#45;&gt;21 -->
<g id="edge43" class="edge">
<title>3&#45;&gt;21</title>
<path fill="none" stroke="black" d="M1219.61,-1085.58C1297.88,-1163.64 1604.91,-1469.88 1697.26,-1561.98"/>
<polygon fill="black" stroke="black" points="1694.64,-1564.32 1704.19,-1568.9 1699.59,-1559.36 1694.64,-1564.32"/>
<text text-anchor="middle" x="1432.18" y="-1327.73" font-family="Times,serif" font-size="14.00">Default</text>
</g>
<!-- 7 -->
<g id="node8" class="node">
<title>7</title>
<ellipse fill="none" stroke="black" cx="3000.33" cy="-18" rx="214.3" ry="18"/>
<text text-anchor="middle" x="3000.33" y="-13.32" font-family="Times,serif" font-size="14.00">Celeste Liu &lt;uwu@coelacanthus.name&gt;</text>
</g>
<!-- 12&#45;&gt;3 -->
<g id="edge6" class="edge">
<title>12&#45;&gt;3</title>
<path fill="none" stroke="black" d="M2061.94,-525.36C1919.46,-608.3 1376.4,-948.21 1235.08,-1042.86"/>
<polygon fill="black" stroke="black" points="1233.2,-1039.9 1226.87,-1048.4 1237.11,-1045.71 1233.2,-1039.9"/>
<text text-anchor="middle" x="1674.76" y="-788.06" font-family="Times,serif" font-size="14.00">Careful</text>
</g>
<!-- 12&#45;&gt;5 -->
<g id="edge11" class="edge">
<title>12&#45;&gt;5</title>
<path fill="none" stroke="black" d="M2072.55,-525.26C1986.52,-591.01 1691.23,-816.7 1592.08,-892.48"/>
<polygon fill="black" stroke="black" points="1590.13,-889.57 1584.31,-898.42 1594.38,-895.13 1590.13,-889.57"/>
<text text-anchor="middle" x="1806.06" y="-712.82" font-family="Times,serif" font-size="14.00">Careful</text>
</g>
<!-- 12&#45;&gt;7 -->
<g id="edge13" class="edge">
<title>12&#45;&gt;7</title>
<path fill="none" stroke="black" d="M2130.1,-488.81C2269.68,-413.3 2801.28,-125.69 2957.14,-41.37"/>
<polygon fill="black" stroke="black" points="2958.39,-44.67 2965.52,-36.83 2955.06,-38.51 2958.39,-44.67"/>
<text text-anchor="middle" x="2517.37" y="-269.04" font-family="Times,serif" font-size="14.00">Careful</text>
</g>
<!-- 12&#45;&gt;8 -->
<g id="edge14" class="edge">
<title>12&#45;&gt;8</title>
<path fill="none" stroke="black" d="M2079.88,-525.28C2038.51,-571.07 1929.9,-691.3 1881.32,-745.07"/>
<polygon fill="black" stroke="black" points="1878.91,-742.51 1874.8,-752.28 1884.11,-747.21 1878.91,-742.51"/>
<text text-anchor="middle" x="1954.35" y="-639.12" font-family="Times,serif" font-size="14.00">Careful</text>
</g>
<!-- 12&#45;&gt;9 -->
<g id="edge17" class="edge">
<title>12&#45;&gt;9</title>
<path fill="none" stroke="black" d="M1851.23,-509.79C1806.56,-510.28 1760.31,-510.79 1716.72,-511.27"/>
<polygon fill="black" stroke="black" points="1716.87,-507.77 1706.91,-511.38 1716.95,-514.77 1716.87,-507.77"/>
<text text-anchor="middle" x="1757.72" y="-514.48" font-family="Times,serif" font-size="14.00">Careful</text>
</g>
<!-- 12&#45;&gt;10 -->
<g id="edge20" class="edge">
<title>12&#45;&gt;10</title>
<path fill="none" stroke="black" d="M2101,-525.56C2115.95,-584.45 2162.58,-768.13 2180.86,-840.13"/>
<polygon fill="black" stroke="black" points="2177.42,-840.78 2183.27,-849.61 2184.2,-839.06 2177.42,-840.78"/>
<text text-anchor="middle" x="2114.68" y="-686.8" font-family="Times,serif" font-size="14.00">Careful</text>
</g>
<!-- 12&#45;&gt;11 -->
<g id="edge23" class="edge">
<title>12&#45;&gt;11</title>
<path fill="none" stroke="black" d="M2048.87,-488.97C1989.36,-466.24 1887.38,-427.28 1823.26,-402.79"/>
<polygon fill="black" stroke="black" points="1824.54,-399.53 1813.95,-399.23 1822.04,-406.07 1824.54,-399.53"/>
<text text-anchor="middle" x="1909.82" y="-449.83" font-family="Times,serif" font-size="14.00">Careful</text>
</g>
<!-- 12&#45;&gt;20 -->
<g id="edge40" class="edge">
<title>12&#45;&gt;20</title>
<path fill="none" stroke="black" d="M2093.98,-525.22C2087.38,-628.64 2083.5,-1144.09 2088.06,-1274.13"/>
<polygon fill="black" stroke="black" points="2084.55,-1274.13 2088.46,-1283.98 2091.55,-1273.84 2084.55,-1274.13"/>
<text text-anchor="middle" x="2067.02" y="-903.63" font-family="Times,serif" font-size="14.00">Casual</text>
</g>
<!-- 13 -->
<g id="node14" class="node">
<title>13</title>
<ellipse fill="none" stroke="black" cx="3260.94" cy="-1444.64" rx="128.55" ry="18"/>
<text text-anchor="middle" x="3260.94" y="-1439.96" font-family="Times,serif" font-size="14.00">Lee &lt;lee@mtftm.com&gt;</text>
</g>
<!-- 14 -->
<g id="node15" class="node">
<title>14</title>
<ellipse fill="none" stroke="black" cx="2949.95" cy="-1876.14" rx="125.39" ry="18"/>
<text text-anchor="middle" x="2949.95" y="-1871.47" font-family="Times,serif" font-size="14.00">Lee &lt;lee@leetfs.com&gt;</text>
</g>
<!-- 15 -->
<g id="node16" class="node">
<title>15</title>
<ellipse fill="none" stroke="black" cx="2965.62" cy="-1420.06" rx="158.53" ry="18"/>
<text text-anchor="middle" x="2965.62" y="-1415.38" font-family="Times,serif" font-size="14.00">Lee &lt;lee@project&#45;trans.org&gt;</text>
</g>
<!-- 15&#45;&gt;13 -->
<g id="edge28" class="edge">
<title>15&#45;&gt;13</title>
<path fill="none" stroke="black" d="M3094.72,-1430.8C3109.17,-1432.01 3123.86,-1433.23 3138.23,-1434.43"/>
<polygon fill="black" stroke="black" points="3137.91,-1437.91 3148.16,-1435.25 3138.49,-1430.93 3137.91,-1437.91"/>
<text text-anchor="middle" x="3090.23" y="-1436.56" font-family="Times,serif" font-size="14.00">Careful</text>
</g>
<!-- 15&#45;&gt;14 -->
<g id="edge30" class="edge">
<title>15&#45;&gt;14</title>
<path fill="none" stroke="black" d="M2964.99,-1438.5C2962.57,-1508.78 2953.93,-1760.19 2950.96,-1846.67"/>
<polygon fill="black" stroke="black" points="2947.47,-1846.34 2950.63,-1856.46 2954.47,-1846.58 2947.47,-1846.34"/>
<text text-anchor="middle" x="2931.72" y="-1646.54" font-family="Times,serif" font-size="14.00">Careful</text>
</g>
<!-- 16 -->
<g id="node17" class="node">
<title>16</title>
<ellipse fill="none" stroke="black" cx="1253.6" cy="-1399.76" rx="139.59" ry="18"/>
<text text-anchor="middle" x="1253.6" y="-1395.08" font-family="Times,serif" font-size="14.00">Clansty Icaria &lt;i@0w.al&gt;</text>
</g>
<!-- 16&#45;&gt;3 -->
<g id="edge4" class="edge">
<title>16&#45;&gt;3</title>
<path fill="none" stroke="black" d="M1250.72,-1381.41C1242.1,-1326.58 1216.47,-1163.63 1205.93,-1096.62"/>
<polygon fill="black" stroke="black" points="1209.45,-1096.46 1204.44,-1087.12 1202.53,-1097.55 1209.45,-1096.46"/>
<text text-anchor="middle" x="1202.07" y="-1242.96" font-family="Times,serif" font-size="14.00">Default</text>
</g>
<!-- 16&#45;&gt;5 -->
<g id="edge9" class="edge">
<title>16&#45;&gt;5</title>
<path fill="none" stroke="black" d="M1265.22,-1381.44C1311.8,-1307.96 1485.31,-1034.27 1541.57,-945.51"/>
<polygon fill="black" stroke="black" points="1544.48,-947.46 1546.88,-937.14 1538.57,-943.71 1544.48,-947.46"/>
<text text-anchor="middle" x="1377.14" y="-1167.43" font-family="Times,serif" font-size="14.00">Default</text>
</g>
<!-- 17 -->
<g id="node18" class="node">
<title>17</title>
<ellipse fill="none" stroke="black" cx="422.95" cy="-569.11" rx="199.57" ry="18"/>
<text text-anchor="middle" x="422.95" y="-564.43" font-family="Times,serif" font-size="14.00">Clansty Icaria &lt;clansty@moegirl.us&gt;</text>
</g>
<!-- 16&#45;&gt;17 -->
<g id="edge33" class="edge">
<title>16&#45;&gt;17</title>
<path fill="none" stroke="black" d="M1235.48,-1381.63C1128.22,-1274.37 576.82,-722.98 449.3,-595.45"/>
<polygon fill="black" stroke="black" points="451.8,-593.01 442.26,-588.41 446.85,-597.96 451.8,-593.01"/>
<text text-anchor="middle" x="816.14" y="-992.49" font-family="Times,serif" font-size="14.00">Careful</text>
</g>
<!-- 18 -->
<g id="node19" class="node">
<title>18</title>
<ellipse fill="none" stroke="black" cx="1444.1" cy="-1977.98" rx="155.9" ry="18"/>
<text text-anchor="middle" x="1444.1" y="-1973.3" font-family="Times,serif" font-size="14.00">Clansty Icaria &lt;i@gao4.pw&gt;</text>
</g>
<!-- 16&#45;&gt;18 -->
<g id="edge34" class="edge">
<title>16&#45;&gt;18</title>
<path fill="none" stroke="black" d="M1259.62,-1418.02C1287.08,-1501.38 1400.67,-1846.16 1434.53,-1948.94"/>
<polygon fill="black" stroke="black" points="1431.16,-1949.87 1437.61,-1958.27 1437.8,-1947.68 1431.16,-1949.87"/>
<text text-anchor="middle" x="1320.83" y="-1687.43" font-family="Times,serif" font-size="14.00">Careful</text>
</g>
<!-- 19 -->
<g id="node20" class="node">
<title>19</title>
<ellipse fill="none" stroke="black" cx="1794.1" cy="-2074.62" rx="200.1" ry="18"/>
<text text-anchor="middle" x="1794.1" y="-2069.94" font-family="Times,serif" font-size="14.00">Clansty Icaria &lt;hujl634@gmail.com&gt;</text>
</g>
<!-- 16&#45;&gt;19 -->
<g id="edge36" class="edge">
<title>16&#45;&gt;19</title>
<path fill="none" stroke="black" d="M1268.06,-1417.81C1342.52,-1510.78 1682.73,-1935.56 1772.39,-2047.51"/>
<polygon fill="black" stroke="black" points="1769.42,-2049.39 1778.4,-2055.01 1774.88,-2045.02 1769.42,-2049.39"/>
<text text-anchor="middle" x="1493.98" y="-1736.61" font-family="Times,serif" font-size="14.00">Careful</text>
</g>
<!-- 16&#45;&gt;20 -->
<g id="edge39" class="edge">
<title>16&#45;&gt;20</title>
<path fill="none" stroke="black" d="M1359.19,-1387.67C1511.7,-1370.22 1793.49,-1337.97 1959.24,-1319"/>
<polygon fill="black" stroke="black" points="1959.44,-1322.5 1968.98,-1317.89 1958.65,-1315.55 1959.44,-1322.5"/>
<text text-anchor="middle" x="1632.97" y="-1357.29" font-family="Times,serif" font-size="14.00">Default</text>
</g>
<!-- 16&#45;&gt;21 -->
<g id="edge45" class="edge">
<title>16&#45;&gt;21</title>
<path fill="none" stroke="black" d="M1297.41,-1417.33C1383.11,-1451.71 1572.83,-1527.82 1667.57,-1565.82"/>
<polygon fill="black" stroke="black" points="1666.1,-1569 1676.68,-1569.48 1668.71,-1562.51 1666.1,-1569"/>
<text text-anchor="middle" x="1456.24" y="-1495.53" font-family="Times,serif" font-size="14.00">Default</text>
</g>
<!-- 20&#45;&gt;0 -->
<g id="edge1" class="edge">
<title>20&#45;&gt;0</title>
<path fill="none" stroke="black" d="M2093.37,-1322.16C2115.48,-1423.88 2253.3,-1922.03 2293.88,-2048.11"/>
<polygon fill="black" stroke="black" points="2290.48,-2048.96 2296.92,-2057.37 2297.13,-2046.78 2290.48,-2048.96"/>
<text text-anchor="middle" x="2167.38" y="-1671.83" font-family="Times,serif" font-size="14.00">Careful</text>
</g>
<!-- 20&#45;&gt;3 -->
<g id="edge5" class="edge">
<title>20&#45;&gt;3</title>
<path fill="none" stroke="black" d="M2037.87,-1286.38C1890.54,-1242.89 1473.46,-1131.64 1289.9,-1086.54"/>
<polygon fill="black" stroke="black" points="1290.96,-1083.19 1280.41,-1084.22 1289.3,-1089.99 1290.96,-1083.19"/>
<text text-anchor="middle" x="1690.14" y="-1190.41" font-family="Times,serif" font-size="14.00">Careful</text>
</g>
<!-- 20&#45;&gt;5 -->
<g id="edge10" class="edge">
<title>20&#45;&gt;5</title>
<path fill="none" stroke="black" d="M2065.71,-1285.85C1979.34,-1223.03 1692.65,-1014.51 1593.45,-942.35"/>
<polygon fill="black" stroke="black" points="1595.54,-939.55 1585.4,-936.5 1591.43,-945.21 1595.54,-939.55"/>
<text text-anchor="middle" x="1803.33" y="-1118.05" font-family="Times,serif" font-size="14.00">Careful</text>
</g>
<!-- 20&#45;&gt;8 -->
<g id="edge15" class="edge">
<title>20&#45;&gt;8</title>
<path fill="none" stroke="black" d="M2082.59,-1285.64C2048.05,-1206.87 1912.01,-896.63 1869.8,-800.36"/>
<polygon fill="black" stroke="black" points="1873.07,-799.1 1865.85,-791.35 1866.66,-801.91 1873.07,-799.1"/>
<text text-anchor="middle" x="1949.94" y="-1046.95" font-family="Times,serif" font-size="14.00">Careful</text>
</g>
<!-- 20&#45;&gt;9 -->
<g id="edge18" class="edge">
<title>20&#45;&gt;9</title>
<path fill="none" stroke="black" d="M2077.01,-1285.59C1999.89,-1181.46 1617.86,-665.61 1525.44,-540.82"/>
<polygon fill="black" stroke="black" points="1528.48,-539.04 1519.72,-533.09 1522.86,-543.21 1528.48,-539.04"/>
<text text-anchor="middle" x="1774.98" y="-917.15" font-family="Times,serif" font-size="14.00">Careful</text>
</g>
<!-- 20&#45;&gt;10 -->
<g id="edge21" class="edge">
<title>20&#45;&gt;10</title>
<path fill="none" stroke="black" d="M2094.76,-1285.58C2109.99,-1217.84 2163.04,-981.93 2181.74,-898.78"/>
<polygon fill="black" stroke="black" points="2185.13,-899.67 2183.91,-889.14 2178.3,-898.13 2185.13,-899.67"/>
<text text-anchor="middle" x="2112" y="-1096.13" font-family="Times,serif" font-size="14.00">Careful</text>
</g>
<!-- 20&#45;&gt;11 -->
<g id="edge24" class="edge">
<title>20&#45;&gt;11</title>
<path fill="none" stroke="black" d="M2084.12,-1285.52C2043.56,-1170.44 1825.35,-551.32 1775.38,-409.54"/>
<polygon fill="black" stroke="black" points="1778.82,-408.78 1772.2,-400.52 1772.22,-411.11 1778.82,-408.78"/>
<text text-anchor="middle" x="1903.5" y="-834.23" font-family="Times,serif" font-size="14.00">Careful</text>
</g>
<!-- 20&#45;&gt;12 -->
<g id="edge26" class="edge">
<title>20&#45;&gt;12</title>
<path fill="none" stroke="black" d="M2092.96,-1285.84C2099.56,-1182.42 2103.43,-666.97 2098.88,-536.92"/>
<polygon fill="black" stroke="black" points="2102.38,-536.93 2098.47,-527.08 2095.38,-537.22 2102.38,-536.93"/>
<text text-anchor="middle" x="2122.17" y="-915.33" font-family="Times,serif" font-size="14.00">Careful</text>
</g>
<!-- 20&#45;&gt;13 -->
<g id="edge29" class="edge">
<title>20&#45;&gt;13</title>
<path fill="none" stroke="black" d="M2207.38,-1318C2433.84,-1345.22 2929.85,-1404.84 3150.88,-1431.41"/>
<polygon fill="black" stroke="black" points="3150.3,-1434.87 3160.65,-1432.58 3151.14,-1427.92 3150.3,-1434.87"/>
<text text-anchor="middle" x="2655.13" y="-1378.66" font-family="Times,serif" font-size="14.00">Casual</text>
</g>
<!-- 20&#45;&gt;14 -->
<g id="edge31" class="edge">
<title>20&#45;&gt;14</title>
<path fill="none" stroke="black" d="M2117.76,-1322.04C2243.67,-1405.88 2770.9,-1756.92 2913.99,-1852.2"/>
<polygon fill="black" stroke="black" points="2911.71,-1854.89 2921.97,-1857.52 2915.59,-1849.06 2911.71,-1854.89"/>
<text text-anchor="middle" x="2491.87" y="-1591.07" font-family="Times,serif" font-size="14.00">Casual</text>
</g>
<!-- 20&#45;&gt;15 -->
<g id="edge32" class="edge">
<title>20&#45;&gt;15</title>
<path fill="none" stroke="black" d="M2200.55,-1318.55C2366.65,-1340.59 2680.14,-1382.18 2849.7,-1404.68"/>
<polygon fill="black" stroke="black" points="2849.03,-1408.12 2859.41,-1405.97 2849.95,-1401.18 2849.03,-1408.12"/>
<text text-anchor="middle" x="2501.13" y="-1365.57" font-family="Times,serif" font-size="14.00">Casual</text>
</g>
<!-- 20&#45;&gt;18 -->
<g id="edge35" class="edge">
<title>20&#45;&gt;18</title>
<path fill="none" stroke="black" d="M2072.99,-1322.34C1983.05,-1416.11 1575.41,-1841.08 1469.37,-1951.63"/>
<polygon fill="black" stroke="black" points="1467.16,-1948.88 1462.76,-1958.52 1472.21,-1953.73 1467.16,-1948.88"/>
<text text-anchor="middle" x="1744.93" y="-1640.93" font-family="Times,serif" font-size="14.00">Default</text>
</g>
<!-- 20&#45;&gt;19 -->
<g id="edge37" class="edge">
<title>20&#45;&gt;19</title>
<path fill="none" stroke="black" d="M2083.58,-1322.26C2044.46,-1423.93 1853.78,-1919.52 1805.32,-2045.46"/>
<polygon fill="black" stroke="black" points="1802.08,-2044.15 1801.75,-2054.74 1808.61,-2046.67 1802.08,-2044.15"/>
<text text-anchor="middle" x="1918.2" y="-1687.81" font-family="Times,serif" font-size="14.00">Default</text>
</g>
<!-- 20&#45;&gt;21 -->
<g id="edge42" class="edge">
<title>20&#45;&gt;21</title>
<path fill="none" stroke="black" d="M2067.11,-1322.19C2003.7,-1371.32 1829.07,-1506.66 1756.23,-1563.1"/>
<polygon fill="black" stroke="black" points="1754.42,-1560.07 1748.66,-1568.97 1758.71,-1565.61 1754.42,-1560.07"/>
<text text-anchor="middle" x="1885.42" y="-1446.59" font-family="Times,serif" font-size="14.00">Careful</text>
</g>
</g>
</svg>
