<?xml version="1.0" encoding="UTF-8" standalone="no"?>
<!DOCTYPE svg PUBLIC "-//W3C//DTD SVG 1.1//EN"
 "http://www.w3.org/Graphics/SVG/1.1/DTD/svg11.dtd">
<!-- Generated by graphviz version 12.1.0 (0)
 -->
<!-- Pages: 1 -->
<svg width="3426pt" height="3299pt"
 viewBox="0.00 0.00 3426.19 3299.04" xmlns="http://www.w3.org/2000/svg" xmlns:xlink="http://www.w3.org/1999/xlink">
<g id="graph0" class="graph" transform="scale(1 1) rotate(0) translate(4 3295.04)">
<polygon fill="white" stroke="none" points="-4,4 -4,-3295.04 3422.19,-3295.04 3422.19,4 -4,4"/>
<!-- 0 -->
<g id="node1" class="node">
<title>0</title>
<ellipse fill="none" stroke="black" cx="209.55" cy="-1990.75" rx="158.53" ry="18"/>
<text text-anchor="middle" x="209.55" y="-1986.08" font-family="Times,serif" font-size="14.00">Lee &lt;lee@project&#45;trans.org&gt;</text>
</g>
<!-- 1 -->
<g id="node2" class="node">
<title>1</title>
<ellipse fill="none" stroke="black" cx="391.61" cy="-2336.67" rx="128.55" ry="18"/>
<text text-anchor="middle" x="391.61" y="-2331.99" font-family="Times,serif" font-size="14.00">Lee &lt;lee@mtftm.com&gt;</text>
</g>
<!-- 0&#45;&gt;1 -->
<g id="edge2" class="edge">
<title>0&#45;&gt;1</title>
<path fill="none" stroke="black" d="M219.09,-2008.87C248.88,-2065.47 340.42,-2239.39 376.64,-2308.21"/>
<polygon fill="black" stroke="black" points="373.5,-2309.76 381.25,-2316.98 379.69,-2306.5 373.5,-2309.76"/>
<text text-anchor="middle" x="271.61" y="-2162.49" font-family="Times,serif" font-size="14.00">Careful</text>
</g>
<!-- 2 -->
<g id="node3" class="node">
<title>2</title>
<ellipse fill="none" stroke="black" cx="125.39" cy="-1606.64" rx="125.39" ry="18"/>
<text text-anchor="middle" x="125.39" y="-1601.97" font-family="Times,serif" font-size="14.00">Lee &lt;lee@leetfs.com&gt;</text>
</g>
<!-- 0&#45;&gt;2 -->
<g id="edge4" class="edge">
<title>0&#45;&gt;2</title>
<path fill="none" stroke="black" d="M205.55,-1972.49C192.09,-1911.07 148.4,-1711.64 131.83,-1636.05"/>
<polygon fill="black" stroke="black" points="135.3,-1635.52 129.74,-1626.5 128.46,-1637.02 135.3,-1635.52"/>
<text text-anchor="middle" x="142.44" y="-1808.22" font-family="Times,serif" font-size="14.00">Careful</text>
</g>
<!-- 3 -->
<g id="node4" class="node">
<title>3</title>
<ellipse fill="none" stroke="red" cx="2944.57" cy="-1010.37" rx="169.58" ry="18"/>
<text text-anchor="middle" x="2944.57" y="-1005.69" font-family="Times,serif" font-size="14.00">Estela ad Astra &lt;i@estela.cat&gt;</text>
</g>
<!-- 4 -->
<g id="node5" class="node">
<title>4</title>
<ellipse fill="none" stroke="black" cx="3221.25" cy="-1856.23" rx="196.94" ry="18"/>
<text text-anchor="middle" x="3221.25" y="-1851.56" font-family="Times,serif" font-size="14.00">Estela ad Astra &lt;work@estela.moe&gt;</text>
</g>
<!-- 5 -->
<g id="node6" class="node">
<title>5</title>
<ellipse fill="none" stroke="red" cx="3218.58" cy="-1418.33" rx="125.92" ry="18"/>
<text text-anchor="middle" x="3218.58" y="-1413.66" font-family="Times,serif" font-size="14.00">saeziae &lt;i@estela.cn&gt;</text>
</g>
<!-- 6 -->
<g id="node7" class="node">
<title>6</title>
<ellipse fill="none" stroke="black" cx="2224.39" cy="-1709.46" rx="175.37" ry="18"/>
<text text-anchor="middle" x="2224.39" y="-1704.79" font-family="Times,serif" font-size="14.00">Estela ad Astra &lt;i@estela.moe&gt;</text>
</g>
<!-- 6&#45;&gt;3 -->
<g id="edge6" class="edge">
<title>6&#45;&gt;3</title>
<path fill="none" stroke="black" d="M2243.29,-1691.12C2342.34,-1594.97 2801.62,-1149.13 2917.81,-1036.35"/>
<polygon fill="black" stroke="black" points="2920.05,-1039.05 2924.79,-1029.57 2915.17,-1034.02 2920.05,-1039.05"/>
<text text-anchor="middle" x="2554.3" y="-1367.68" font-family="Times,serif" font-size="14.00">Careful</text>
</g>
<!-- 6&#45;&gt;4 -->
<g id="edge7" class="edge">
<title>6&#45;&gt;4</title>
<path fill="none" stroke="black" d="M2326.39,-1724.48C2512.7,-1751.91 2906.98,-1809.96 3104.02,-1838.97"/>
<polygon fill="black" stroke="black" points="3103.37,-1842.42 3113.78,-1840.41 3104.39,-1835.49 3103.37,-1842.42"/>
<text text-anchor="middle" x="2688.96" y="-1785.68" font-family="Times,serif" font-size="14.00">Careful</text>
</g>
<!-- 6&#45;&gt;5 -->
<g id="edge8" class="edge">
<title>6&#45;&gt;5</title>
<path fill="none" stroke="black" d="M2283.61,-1692.12C2457.71,-1641.14 2967.25,-1491.93 3151.29,-1438.04"/>
<polygon fill="black" stroke="black" points="3152.09,-1441.45 3160.71,-1435.28 3150.13,-1434.73 3152.09,-1441.45"/>
<text text-anchor="middle" x="2691.2" y="-1569.03" font-family="Times,serif" font-size="14.00">Careful</text>
</g>
<!-- 7 -->
<g id="node8" class="node">
<title>7</title>
<ellipse fill="none" stroke="black" cx="1677.66" cy="-1543.32" rx="165.9" ry="18"/>
<text text-anchor="middle" x="1677.66" y="-1538.65" font-family="Times,serif" font-size="14.00">Estela ad Astra &lt;i@estela.cn&gt;</text>
</g>
<!-- 6&#45;&gt;7 -->
<g id="edge12" class="edge">
<title>6&#45;&gt;7</title>
<path fill="none" stroke="black" d="M2166.92,-1692C2065.27,-1661.11 1854.27,-1596.99 1745.61,-1563.97"/>
<polygon fill="black" stroke="black" points="1746.81,-1560.68 1736.23,-1561.12 1744.78,-1567.37 1746.81,-1560.68"/>
<text text-anchor="middle" x="1930.01" y="-1631.93" font-family="Times,serif" font-size="14.00">Careful</text>
</g>
<!-- 8 -->
<g id="node9" class="node">
<title>8</title>
<ellipse fill="none" stroke="black" cx="3034.94" cy="-2364.83" rx="175.37" ry="18"/>
<text text-anchor="middle" x="3034.94" y="-2360.15" font-family="Times,serif" font-size="14.00">Estela ad Astra &lt;jo@estela.cat&gt;</text>
</g>
<!-- 6&#45;&gt;8 -->
<g id="edge16" class="edge">
<title>6&#45;&gt;8</title>
<path fill="none" stroke="black" d="M2246.92,-1727.67C2360.65,-1819.63 2871.57,-2232.73 3003.68,-2339.55"/>
<polygon fill="black" stroke="black" points="3001.37,-2342.18 3011.35,-2345.75 3005.77,-2336.74 3001.37,-2342.18"/>
<text text-anchor="middle" x="2599.05" y="-2037.56" font-family="Times,serif" font-size="14.00">Careful</text>
</g>
<!-- 14 -->
<g id="node15" class="node">
<title>14</title>
<ellipse fill="none" stroke="black" cx="1376.66" cy="-1221.13" rx="404.75" ry="18"/>
<text text-anchor="middle" x="1376.66" y="-1216.45" font-family="Times,serif" font-size="14.00">Cryolitia (https://github.com/project&#45;trans only) &lt;cryolitia@project&#45;trans.org&gt;</text>
</g>
<!-- 6&#45;&gt;14 -->
<g id="edge24" class="edge">
<title>6&#45;&gt;14</title>
<path fill="none" stroke="black" d="M2192.96,-1691.36C2062.76,-1616.35 1565.63,-1329.98 1418.14,-1245.02"/>
<polygon fill="black" stroke="black" points="1420.26,-1242.21 1409.85,-1240.25 1416.77,-1248.27 1420.26,-1242.21"/>
<text text-anchor="middle" x="1779.3" y="-1472.14" font-family="Times,serif" font-size="14.00">Default</text>
</g>
<!-- 15 -->
<g id="node16" class="node">
<title>15</title>
<ellipse fill="none" stroke="black" cx="1184.87" cy="-1674.16" rx="179.05" ry="18"/>
<text text-anchor="middle" x="1184.87" y="-1669.48" font-family="Times,serif" font-size="14.00">Cryolitia &lt;Cryolitia@gmail.com&gt;</text>
</g>
<!-- 6&#45;&gt;15 -->
<g id="edge30" class="edge">
<title>6&#45;&gt;15</title>
<path fill="none" stroke="black" d="M2076.17,-1699.53C1891.95,-1690.96 1577.25,-1680.12 1375.32,-1675.26"/>
<polygon fill="black" stroke="black" points="1375.58,-1671.77 1365.5,-1675.03 1375.42,-1678.76 1375.58,-1671.77"/>
<text text-anchor="middle" x="1701.75" y="-1674.1" font-family="Times,serif" font-size="14.00">Casual</text>
</g>
<!-- 16 -->
<g id="node17" class="node">
<title>16</title>
<ellipse fill="none" stroke="red" cx="1388.93" cy="-2240.25" rx="201.15" ry="18"/>
<text text-anchor="middle" x="1388.93" y="-2235.57" font-family="Times,serif" font-size="14.00">Coelacanthus &lt;i@coelacanthus.moe&gt;</text>
</g>
<!-- 6&#45;&gt;16 -->
<g id="edge33" class="edge">
<title>6&#45;&gt;16</title>
<path fill="none" stroke="black" d="M2196.12,-1727.43C2071.41,-1806.65 1570.45,-2124.92 1427.31,-2215.87"/>
<polygon fill="black" stroke="black" points="1425.47,-2212.89 1418.91,-2221.2 1429.23,-2218.8 1425.47,-2212.89"/>
<text text-anchor="middle" x="1785.46" y="-1975.6" font-family="Times,serif" font-size="14.00">Careful</text>
</g>
<!-- 17 -->
<g id="node18" class="node">
<title>17</title>
<ellipse fill="none" stroke="black" cx="1660.29" cy="-2309.25" rx="247.45" ry="18"/>
<text text-anchor="middle" x="1660.29" y="-2304.57" font-family="Times,serif" font-size="14.00">Coelacanthus &lt;CoelacanthusHex@gmail.com&gt;</text>
</g>
<!-- 6&#45;&gt;17 -->
<g id="edge35" class="edge">
<title>6&#45;&gt;17</title>
<path fill="none" stroke="black" d="M2203.71,-1727.62C2115.43,-1813.6 1771.46,-2179.19 1681.73,-2282.19"/>
<polygon fill="black" stroke="black" points="1679.19,-2279.78 1675.31,-2289.63 1684.49,-2284.35 1679.19,-2279.78"/>
<text text-anchor="middle" x="1916.47" y="-1991.6" font-family="Times,serif" font-size="14.00">Careful</text>
</g>
<!-- 18 -->
<g id="node19" class="node">
<title>18</title>
<ellipse fill="none" stroke="black" cx="2013.98" cy="-2120.39" rx="256.39" ry="18"/>
<text text-anchor="middle" x="2013.98" y="-2115.72" font-family="Times,serif" font-size="14.00">Celeste Liu (For AOSC) &lt;coelacanthus@aosc.io&gt;</text>
</g>
<!-- 6&#45;&gt;18 -->
<g id="edge38" class="edge">
<title>6&#45;&gt;18</title>
<path fill="none" stroke="black" d="M2214.94,-1727.92C2181.57,-1793.1 2069.06,-2012.81 2028.62,-2091.8"/>
<polygon fill="black" stroke="black" points="2025.54,-2090.14 2024.09,-2100.64 2031.77,-2093.33 2025.54,-2090.14"/>
<text text-anchor="middle" x="2095.53" y="-1913.81" font-family="Times,serif" font-size="14.00">Careful</text>
</g>
<!-- 19 -->
<g id="node20" class="node">
<title>19</title>
<ellipse fill="none" stroke="black" cx="1836.27" cy="-1823.06" rx="234.29" ry="18"/>
<text text-anchor="middle" x="1836.27" y="-1818.38" font-family="Times,serif" font-size="14.00">Coelacanthus &lt;coelacanthus@outlook.com&gt;</text>
</g>
<!-- 6&#45;&gt;19 -->
<g id="edge41" class="edge">
<title>6&#45;&gt;19</title>
<path fill="none" stroke="black" d="M2165.02,-1726.84C2095.91,-1747.07 1981.8,-1780.46 1907.85,-1802.11"/>
<polygon fill="black" stroke="black" points="1907.3,-1798.62 1898.69,-1804.79 1909.27,-1805.34 1907.3,-1798.62"/>
<text text-anchor="middle" x="2010.19" y="-1768.42" font-family="Times,serif" font-size="14.00">Careful</text>
</g>
<!-- 21 -->
<g id="node22" class="node">
<title>21</title>
<ellipse fill="none" stroke="black" cx="1911.77" cy="-2420.92" rx="345.83" ry="18"/>
<text text-anchor="middle" x="1911.77" y="-2416.24" font-family="Times,serif" font-size="14.00">Liu, Hongwu (Name on Passport) &lt;CoelacanthusHex@gmail.com&gt;</text>
</g>
<!-- 6&#45;&gt;21 -->
<g id="edge45" class="edge">
<title>6&#45;&gt;21</title>
<path fill="none" stroke="black" d="M2216.35,-1727.76C2173.95,-1824.26 1976.31,-2274.04 1924.32,-2392.35"/>
<polygon fill="black" stroke="black" points="1921.18,-2390.79 1920.36,-2401.35 1927.59,-2393.61 1921.18,-2390.79"/>
<text text-anchor="middle" x="2044.09" y="-2064.01" font-family="Times,serif" font-size="14.00">Careful</text>
</g>
<!-- 9 -->
<g id="node10" class="node">
<title>9</title>
<ellipse fill="none" stroke="black" cx="625.11" cy="-1183.04" rx="184.31" ry="18"/>
<text text-anchor="middle" x="625.11" y="-1178.37" font-family="Times,serif" font-size="14.00">soragoto &lt;soragoto@soragoto.io&gt;</text>
</g>
<!-- 9&#45;&gt;14 -->
<g id="edge25" class="edge">
<title>9&#45;&gt;14</title>
<path fill="none" stroke="black" d="M789.58,-1191.38C878.78,-1195.9 991.51,-1201.61 1094.29,-1206.82"/>
<polygon fill="black" stroke="black" points="1093.81,-1210.3 1103.97,-1207.31 1094.16,-1203.31 1093.81,-1210.3"/>
<text text-anchor="middle" x="915.68" y="-1203.05" font-family="Times,serif" font-size="14.00">Default</text>
</g>
<!-- 9&#45;&gt;15 -->
<g id="edge27" class="edge">
<title>9&#45;&gt;15</title>
<path fill="none" stroke="black" d="M642,-1201.36C719.92,-1276.7 1044.68,-1561.94 1151.03,-1648.9"/>
<polygon fill="black" stroke="black" points="1148.62,-1651.45 1158.59,-1655.04 1153.03,-1646.02 1148.62,-1651.45"/>
<text text-anchor="middle" x="870.27" y="-1429.08" font-family="Times,serif" font-size="14.00">Default</text>
</g>
<!-- 10 -->
<g id="node11" class="node">
<title>10</title>
<ellipse fill="none" stroke="black" cx="1206.82" cy="-631.61" rx="200.1" ry="18"/>
<text text-anchor="middle" x="1206.82" y="-626.94" font-family="Times,serif" font-size="14.00">Clansty Icaria &lt;hujl634@gmail.com&gt;</text>
</g>
<!-- 11 -->
<g id="node12" class="node">
<title>11</title>
<ellipse fill="none" stroke="black" cx="1647.85" cy="-903.88" rx="139.59" ry="18"/>
<text text-anchor="middle" x="1647.85" y="-899.21" font-family="Times,serif" font-size="14.00">Clansty Icaria &lt;i@0w.al&gt;</text>
</g>
<!-- 11&#45;&gt;6 -->
<g id="edge9" class="edge">
<title>11&#45;&gt;6</title>
<path fill="none" stroke="black" d="M1660.98,-922.22C1736.37,-1027.56 2114.1,-1555.36 2204.8,-1682.08"/>
<polygon fill="black" stroke="black" points="2201.74,-1683.82 2210.41,-1689.92 2207.43,-1679.75 2201.74,-1683.82"/>
<text text-anchor="middle" x="1906.64" y="-1306.1" font-family="Times,serif" font-size="14.00">Default</text>
</g>
<!-- 11&#45;&gt;7 -->
<g id="edge13" class="edge">
<title>11&#45;&gt;7</title>
<path fill="none" stroke="black" d="M1648.71,-922.33C1652.9,-1012.04 1671.12,-1402.85 1676.29,-1513.83"/>
<polygon fill="black" stroke="black" points="1672.78,-1513.77 1676.74,-1523.59 1679.77,-1513.44 1672.78,-1513.77"/>
<text text-anchor="middle" x="1636.25" y="-1204.78" font-family="Times,serif" font-size="14.00">Default</text>
</g>
<!-- 11&#45;&gt;10 -->
<g id="edge18" class="edge">
<title>11&#45;&gt;10</title>
<path fill="none" stroke="black" d="M1618.58,-885.81C1541.59,-838.28 1333.43,-709.78 1246.16,-655.9"/>
<polygon fill="black" stroke="black" points="1248.01,-652.93 1237.66,-650.66 1244.34,-658.89 1248.01,-652.93"/>
<text text-anchor="middle" x="1406.12" y="-774.8" font-family="Times,serif" font-size="14.00">Careful</text>
</g>
<!-- 12 -->
<g id="node13" class="node">
<title>12</title>
<ellipse fill="none" stroke="black" cx="2007.08" cy="-18" rx="199.57" ry="18"/>
<text text-anchor="middle" x="2007.08" y="-13.32" font-family="Times,serif" font-size="14.00">Clansty Icaria &lt;clansty@moegirl.us&gt;</text>
</g>
<!-- 11&#45;&gt;12 -->
<g id="edge20" class="edge">
<title>11&#45;&gt;12</title>
<path fill="none" stroke="black" d="M1655.19,-885.78C1700.24,-774.69 1939.28,-185.19 1995.32,-47"/>
<polygon fill="black" stroke="black" points="1998.52,-48.42 1999.03,-37.84 1992.03,-45.79 1998.52,-48.42"/>
<text text-anchor="middle" x="1799" y="-470.34" font-family="Times,serif" font-size="14.00">Careful</text>
</g>
<!-- 13 -->
<g id="node14" class="node">
<title>13</title>
<ellipse fill="none" stroke="black" cx="903.31" cy="-803.52" rx="155.9" ry="18"/>
<text text-anchor="middle" x="903.31" y="-798.85" font-family="Times,serif" font-size="14.00">Clansty Icaria &lt;i@gao4.pw&gt;</text>
</g>
<!-- 11&#45;&gt;13 -->
<g id="edge21" class="edge">
<title>11&#45;&gt;13</title>
<path fill="none" stroke="black" d="M1550.14,-890.71C1412.77,-872.19 1163.11,-838.54 1017.4,-818.9"/>
<polygon fill="black" stroke="black" points="1018.11,-815.47 1007.73,-817.6 1017.18,-822.4 1018.11,-815.47"/>
<text text-anchor="middle" x="1257.52" y="-858.76" font-family="Times,serif" font-size="14.00">Careful</text>
</g>
<!-- 11&#45;&gt;14 -->
<g id="edge26" class="edge">
<title>11&#45;&gt;14</title>
<path fill="none" stroke="black" d="M1632.5,-921.85C1587.11,-974.94 1453.4,-1131.36 1399.54,-1194.37"/>
<polygon fill="black" stroke="black" points="1397.01,-1191.94 1393.17,-1201.82 1402.33,-1196.49 1397.01,-1191.94"/>
<text text-anchor="middle" x="1489.77" y="-1062.06" font-family="Times,serif" font-size="14.00">Default</text>
</g>
<!-- 11&#45;&gt;15 -->
<g id="edge28" class="edge">
<title>11&#45;&gt;15</title>
<path fill="none" stroke="black" d="M1636.87,-922.16C1575.6,-1024.1 1276.24,-1522.14 1201.7,-1646.15"/>
<polygon fill="black" stroke="black" points="1198.89,-1644.03 1196.74,-1654.41 1204.89,-1647.64 1198.89,-1644.03"/>
<text text-anchor="middle" x="1393.04" y="-1288.11" font-family="Times,serif" font-size="14.00">Default</text>
</g>
<!-- 15&#45;&gt;0 -->
<g id="edge1" class="edge">
<title>15&#45;&gt;0</title>
<path fill="none" stroke="black" d="M1130.69,-1691.74C963.29,-1746.08 454.71,-1911.17 274.07,-1969.81"/>
<polygon fill="black" stroke="black" points="273.03,-1966.47 264.6,-1972.89 275.19,-1973.13 273.03,-1966.47"/>
<text text-anchor="middle" x="678.38" y="-1834.73" font-family="Times,serif" font-size="14.00">Casual</text>
</g>
<!-- 15&#45;&gt;1 -->
<g id="edge3" class="edge">
<title>15&#45;&gt;1</title>
<path fill="none" stroke="black" d="M1163.24,-1692.22C1052.66,-1784.57 550.73,-2203.78 421.85,-2311.42"/>
<polygon fill="black" stroke="black" points="419.82,-2308.55 414.39,-2317.65 424.3,-2313.93 419.82,-2308.55"/>
<text text-anchor="middle" x="768.54" y="-2005.77" font-family="Times,serif" font-size="14.00">Casual</text>
</g>
<!-- 15&#45;&gt;2 -->
<g id="edge5" class="edge">
<title>15&#45;&gt;2</title>
<path fill="none" stroke="black" d="M1032.23,-1664.43C822.17,-1651.04 447.84,-1627.19 252.29,-1614.73"/>
<polygon fill="black" stroke="black" points="252.53,-1611.24 242.33,-1614.1 252.09,-1618.22 252.53,-1611.24"/>
<text text-anchor="middle" x="618.26" y="-1643.53" font-family="Times,serif" font-size="14.00">Casual</text>
</g>
<!-- 15&#45;&gt;6 -->
<g id="edge10" class="edge">
<title>15&#45;&gt;6</title>
<path fill="none" stroke="black" d="M1335.58,-1684.2C1521.26,-1692.8 1836.74,-1703.65 2037.61,-1708.44"/>
<polygon fill="black" stroke="black" points="2037.29,-1711.94 2047.37,-1708.67 2037.45,-1704.94 2037.29,-1711.94"/>
<text text-anchor="middle" x="1660.35" y="-1700.27" font-family="Times,serif" font-size="14.00">Careful</text>
</g>
<!-- 15&#45;&gt;7 -->
<g id="edge14" class="edge">
<title>15&#45;&gt;7</title>
<path fill="none" stroke="black" d="M1249.8,-1656.92C1340.93,-1632.72 1506.39,-1588.79 1602.66,-1563.23"/>
<polygon fill="black" stroke="black" points="1603.53,-1566.62 1612.3,-1560.67 1601.74,-1559.86 1603.53,-1566.62"/>
<text text-anchor="middle" x="1399.98" y="-1614.03" font-family="Times,serif" font-size="14.00">Careful</text>
</g>
<!-- 15&#45;&gt;9 -->
<g id="edge17" class="edge">
<title>15&#45;&gt;9</title>
<path fill="none" stroke="black" d="M1167.98,-1655.84C1090.06,-1580.49 765.31,-1295.25 658.95,-1208.29"/>
<polygon fill="black" stroke="black" points="661.36,-1205.74 651.39,-1202.16 656.95,-1211.18 661.36,-1205.74"/>
<text text-anchor="middle" x="939.71" y="-1436.02" font-family="Times,serif" font-size="14.00">Careful</text>
</g>
<!-- 15&#45;&gt;10 -->
<g id="edge19" class="edge">
<title>15&#45;&gt;10</title>
<path fill="none" stroke="black" d="M1185.25,-1656.06C1187.85,-1532.72 1202.94,-816.02 1206.2,-661.12"/>
<polygon fill="black" stroke="black" points="1209.69,-661.38 1206.4,-651.31 1202.69,-661.24 1209.69,-661.38"/>
<text text-anchor="middle" x="1169.47" y="-1162.54" font-family="Times,serif" font-size="14.00">Default</text>
</g>
<!-- 15&#45;&gt;13 -->
<g id="edge22" class="edge">
<title>15&#45;&gt;13</title>
<path fill="none" stroke="black" d="M1178.99,-1655.97C1143.42,-1545.99 957.12,-969.91 912.79,-832.82"/>
<polygon fill="black" stroke="black" points="916.15,-831.85 909.74,-823.41 909.49,-834.01 916.15,-831.85"/>
<text text-anchor="middle" x="1019.64" y="-1248.35" font-family="Times,serif" font-size="14.00">Default</text>
</g>
<!-- 15&#45;&gt;14 -->
<g id="edge23" class="edge">
<title>15&#45;&gt;14</title>
<path fill="none" stroke="black" d="M1192.63,-1655.84C1222.27,-1585.81 1328.55,-1334.77 1364.6,-1249.62"/>
<polygon fill="black" stroke="black" points="1367.75,-1251.15 1368.43,-1240.57 1361.31,-1248.42 1367.75,-1251.15"/>
<text text-anchor="middle" x="1252.36" y="-1456.68" font-family="Times,serif" font-size="14.00">Careful</text>
</g>
<!-- 15&#45;&gt;16 -->
<g id="edge32" class="edge">
<title>15&#45;&gt;16</title>
<path fill="none" stroke="black" d="M1191.43,-1692.35C1220.99,-1774.35 1341.97,-2109.97 1378.46,-2211.2"/>
<polygon fill="black" stroke="black" points="1375.1,-2212.19 1381.78,-2220.41 1381.68,-2209.82 1375.1,-2212.19"/>
<text text-anchor="middle" x="1258.7" y="-1955.73" font-family="Times,serif" font-size="14.00">Careful</text>
</g>
<!-- 15&#45;&gt;17 -->
<g id="edge34" class="edge">
<title>15&#45;&gt;17</title>
<path fill="none" stroke="black" d="M1195.68,-1692.57C1256.05,-1782.56 1549.94,-2175.52 1636.4,-2282.37"/>
<polygon fill="black" stroke="black" points="1633.43,-2284.27 1642.46,-2289.8 1638.85,-2279.84 1633.43,-2284.27"/>
<text text-anchor="middle" x="1389.79" y="-1991.42" font-family="Times,serif" font-size="14.00">Careful</text>
</g>
<!-- 15&#45;&gt;18 -->
<g id="edge37" class="edge">
<title>15&#45;&gt;18</title>
<path fill="none" stroke="black" d="M1218.4,-1692.2C1348.87,-1762.42 1822.74,-2017.46 1970,-2096.72"/>
<polygon fill="black" stroke="black" points="1968.24,-2099.75 1978.7,-2101.4 1971.55,-2093.58 1968.24,-2099.75"/>
<text text-anchor="middle" x="1567.95" y="-1898.41" font-family="Times,serif" font-size="14.00">Careful</text>
</g>
<!-- 15&#45;&gt;19 -->
<g id="edge40" class="edge">
<title>15&#45;&gt;19</title>
<path fill="none" stroke="black" d="M1258.64,-1691.02C1379.61,-1718.67 1619.59,-1773.52 1748.89,-1803.08"/>
<polygon fill="black" stroke="black" points="1747.9,-1806.44 1758.43,-1805.26 1749.46,-1799.62 1747.9,-1806.44"/>
<text text-anchor="middle" x="1477.51" y="-1751" font-family="Times,serif" font-size="14.00">Careful</text>
</g>
<!-- 15&#45;&gt;21 -->
<g id="edge44" class="edge">
<title>15&#45;&gt;21</title>
<path fill="none" stroke="black" d="M1202.48,-1692.24C1299.67,-1792.1 1770.4,-2275.69 1886.06,-2394.51"/>
<polygon fill="black" stroke="black" points="1883.53,-2396.93 1893.01,-2401.65 1888.54,-2392.04 1883.53,-2396.93"/>
<text text-anchor="middle" x="1518.02" y="-2047.33" font-family="Times,serif" font-size="14.00">Careful</text>
</g>
<!-- 17&#45;&gt;6 -->
<g id="edge11" class="edge">
<title>17&#45;&gt;6</title>
<path fill="none" stroke="black" d="M1680.97,-2291.09C1769.34,-2205.02 2113.98,-1838.72 2203.24,-1736.18"/>
<polygon fill="black" stroke="black" points="2205.74,-1738.64 2209.62,-1728.78 2200.44,-1734.07 2205.74,-1738.64"/>
<text text-anchor="middle" x="1915.86" y="-2017.59" font-family="Times,serif" font-size="14.00">Careful</text>
</g>
<!-- 17&#45;&gt;7 -->
<g id="edge15" class="edge">
<title>17&#45;&gt;7</title>
<path fill="none" stroke="black" d="M1660.7,-2291.07C1662.99,-2190.22 1674.12,-1699.44 1676.99,-1573.05"/>
<polygon fill="black" stroke="black" points="1680.49,-1573.26 1677.21,-1563.18 1673.49,-1573.1 1680.49,-1573.26"/>
<text text-anchor="middle" x="1642.59" y="-1936.01" font-family="Times,serif" font-size="14.00">Careful</text>
</g>
<!-- 17&#45;&gt;15 -->
<g id="edge29" class="edge">
<title>17&#45;&gt;15</title>
<path fill="none" stroke="black" d="M1649.48,-2290.83C1589.11,-2200.84 1295.22,-1807.88 1208.76,-1701.03"/>
<polygon fill="black" stroke="black" points="1211.73,-1699.13 1202.7,-1693.6 1206.31,-1703.56 1211.73,-1699.13"/>
<text text-anchor="middle" x="1453.12" y="-1999.88" font-family="Times,serif" font-size="14.00">Casual</text>
</g>
<!-- 17&#45;&gt;16 -->
<g id="edge31" class="edge">
<title>17&#45;&gt;16</title>
<path fill="none" stroke="black" d="M1590.76,-2291.57C1553.3,-2282.04 1506.93,-2270.25 1468.08,-2260.37"/>
<polygon fill="black" stroke="black" points="1469.36,-2257.09 1458.81,-2258.02 1467.64,-2263.87 1469.36,-2257.09"/>
<text text-anchor="middle" x="1503.17" y="-2262.67" font-family="Times,serif" font-size="14.00">Careful</text>
</g>
<!-- 17&#45;&gt;18 -->
<g id="edge36" class="edge">
<title>17&#45;&gt;18</title>
<path fill="none" stroke="black" d="M1694.52,-2290.97C1758.97,-2256.56 1898.22,-2182.2 1969.69,-2144.04"/>
<polygon fill="black" stroke="black" points="1971.22,-2147.19 1978.39,-2139.39 1967.92,-2141.02 1971.22,-2147.19"/>
<text text-anchor="middle" x="1805.86" y="-2221.45" font-family="Times,serif" font-size="14.00">Careful</text>
</g>
<!-- 17&#45;&gt;19 -->
<g id="edge39" class="edge">
<title>17&#45;&gt;19</title>
<path fill="none" stroke="black" d="M1666.97,-2290.78C1693.7,-2216.93 1793.06,-1942.43 1825.76,-1852.09"/>
<polygon fill="black" stroke="black" points="1828.96,-1853.56 1829.07,-1842.96 1822.37,-1851.17 1828.96,-1853.56"/>
<text text-anchor="middle" x="1720.12" y="-2075.39" font-family="Times,serif" font-size="14.00">Careful</text>
</g>
<!-- 20 -->
<g id="node21" class="node">
<title>20</title>
<ellipse fill="none" stroke="black" cx="1520.93" cy="-3273.04" rx="214.3" ry="18"/>
<text text-anchor="middle" x="1520.93" y="-3268.36" font-family="Times,serif" font-size="14.00">Celeste Liu &lt;uwu@coelacanthus.name&gt;</text>
</g>
<!-- 17&#45;&gt;20 -->
<g id="edge42" class="edge">
<title>17&#45;&gt;20</title>
<path fill="none" stroke="black" d="M1657.63,-2327.64C1640.55,-2445.72 1546.38,-3097.01 1525.17,-3243.69"/>
<polygon fill="black" stroke="black" points="1521.74,-3242.95 1523.78,-3253.34 1528.67,-3243.95 1521.74,-3242.95"/>
<text text-anchor="middle" x="1565.15" y="-2789.61" font-family="Times,serif" font-size="14.00">Careful</text>
</g>
<!-- 17&#45;&gt;21 -->
<g id="edge43" class="edge">
<title>17&#45;&gt;21</title>
<path fill="none" stroke="black" d="M1701.25,-2327.44C1744.73,-2346.74 1813.51,-2377.29 1860.54,-2398.17"/>
<polygon fill="black" stroke="black" points="1858.88,-2401.26 1869.44,-2402.12 1861.72,-2394.87 1858.88,-2401.26"/>
<text text-anchor="middle" x="1754.65" y="-2366.75" font-family="Times,serif" font-size="14.00">Careful</text>
</g>
</g>
</svg>
