<?xml version="1.0" encoding="UTF-8" standalone="no"?>
<!DOCTYPE svg PUBLIC "-//W3C//DTD SVG 1.1//EN"
 "http://www.w3.org/Graphics/SVG/1.1/DTD/svg11.dtd">
<!-- Generated by graphviz version 12.1.0 (0)
 -->
<!-- Pages: 1 -->
<svg width="3384pt" height="2880pt"
 viewBox="0.00 0.00 3383.56 2880.01" xmlns="http://www.w3.org/2000/svg" xmlns:xlink="http://www.w3.org/1999/xlink">
<g id="graph0" class="graph" transform="scale(1 1) rotate(0) translate(4 2876.01)">
<polygon fill="white" stroke="none" points="-4,4 -4,-2876.01 3379.56,-2876.01 3379.56,4 -4,4"/>
<!-- 0 -->
<g id="node1" class="node">
<title>0</title>
<ellipse fill="none" stroke="black" cx="945.25" cy="-1805.28" rx="139.59" ry="18"/>
<text text-anchor="middle" x="945.25" y="-1800.61" font-family="Times,serif" font-size="14.00">Clansty Icaria &lt;i@0w.al&gt;</text>
</g>
<!-- 1 -->
<g id="node2" class="node">
<title>1</title>
<ellipse fill="none" stroke="black" cx="478.81" cy="-1062.25" rx="200.1" ry="18"/>
<text text-anchor="middle" x="478.81" y="-1057.58" font-family="Times,serif" font-size="14.00">Clansty Icaria &lt;hujl634@gmail.com&gt;</text>
</g>
<!-- 0&#45;&gt;1 -->
<g id="edge1" class="edge">
<title>0&#45;&gt;1</title>
<path fill="none" stroke="black" d="M933.72,-1786.92C871.15,-1687.25 572.4,-1211.34 496.42,-1090.31"/>
<polygon fill="black" stroke="black" points="499.44,-1088.54 491.16,-1081.93 493.51,-1092.26 499.44,-1088.54"/>
<text text-anchor="middle" x="688.82" y="-1442.56" font-family="Times,serif" font-size="14.00">Careful</text>
</g>
<!-- 2 -->
<g id="node3" class="node">
<title>2</title>
<ellipse fill="none" stroke="black" cx="199.57" cy="-2474.82" rx="199.57" ry="18"/>
<text text-anchor="middle" x="199.57" y="-2470.15" font-family="Times,serif" font-size="14.00">Clansty Icaria &lt;clansty@moegirl.us&gt;</text>
</g>
<!-- 0&#45;&gt;2 -->
<g id="edge3" class="edge">
<title>0&#45;&gt;2</title>
<path fill="none" stroke="black" d="M924.92,-1823.54C821.08,-1916.78 350.08,-2339.68 228.36,-2448.98"/>
<polygon fill="black" stroke="black" points="226.11,-2446.29 221.01,-2455.57 230.79,-2451.5 226.11,-2446.29"/>
<text text-anchor="middle" x="550.39" y="-2140.21" font-family="Times,serif" font-size="14.00">Careful</text>
</g>
<!-- 3 -->
<g id="node4" class="node">
<title>3</title>
<ellipse fill="none" stroke="black" cx="897.17" cy="-770.16" rx="155.9" ry="18"/>
<text text-anchor="middle" x="897.17" y="-765.48" font-family="Times,serif" font-size="14.00">Clansty Icaria &lt;i@gao4.pw&gt;</text>
</g>
<!-- 0&#45;&gt;3 -->
<g id="edge4" class="edge">
<title>0&#45;&gt;3</title>
<path fill="none" stroke="black" d="M944.39,-1786.88C938.65,-1663.28 905.72,-954.4 898.55,-799.89"/>
<polygon fill="black" stroke="black" points="902.05,-799.92 898.09,-790.09 895.06,-800.25 902.05,-799.92"/>
<text text-anchor="middle" x="895.22" y="-1297.34" font-family="Times,serif" font-size="14.00">Careful</text>
</g>
<!-- 4 -->
<g id="node5" class="node">
<title>4</title>
<ellipse fill="none" stroke="black" cx="1129.35" cy="-1491.74" rx="404.75" ry="18"/>
<text text-anchor="middle" x="1129.35" y="-1487.07" font-family="Times,serif" font-size="14.00">Cryolitia (https://github.com/project&#45;trans only) &lt;cryolitia@project&#45;trans.org&gt;</text>
</g>
<!-- 0&#45;&gt;4 -->
<g id="edge9" class="edge">
<title>0&#45;&gt;4</title>
<path fill="none" stroke="black" d="M955.94,-1787.07C986.76,-1734.58 1075.94,-1582.71 1112.95,-1519.67"/>
<polygon fill="black" stroke="black" points="1115.81,-1521.71 1117.86,-1511.31 1109.78,-1518.16 1115.81,-1521.71"/>
<text text-anchor="middle" x="1008.19" y="-1657.32" font-family="Times,serif" font-size="14.00">Default</text>
</g>
<!-- 5 -->
<g id="node6" class="node">
<title>5</title>
<ellipse fill="none" stroke="black" cx="1509.35" cy="-1229.34" rx="179.05" ry="18"/>
<text text-anchor="middle" x="1509.35" y="-1224.67" font-family="Times,serif" font-size="14.00">Cryolitia &lt;Cryolitia@gmail.com&gt;</text>
</g>
<!-- 0&#45;&gt;5 -->
<g id="edge11" class="edge">
<title>0&#45;&gt;5</title>
<path fill="none" stroke="black" d="M963.06,-1787.1C1045.13,-1703.3 1386.91,-1354.35 1483.7,-1255.53"/>
<polygon fill="black" stroke="black" points="1485.97,-1258.21 1490.47,-1248.62 1480.97,-1253.31 1485.97,-1258.21"/>
<text text-anchor="middle" x="1197.13" y="-1525.26" font-family="Times,serif" font-size="14.00">Default</text>
</g>
<!-- 11 -->
<g id="node12" class="node">
<title>11</title>
<ellipse fill="none" stroke="black" cx="1604.59" cy="-1802.71" rx="165.9" ry="18"/>
<text text-anchor="middle" x="1604.59" y="-1798.03" font-family="Times,serif" font-size="14.00">Estela ad Astra &lt;i@estela.cn&gt;</text>
</g>
<!-- 0&#45;&gt;11 -->
<g id="edge20" class="edge">
<title>0&#45;&gt;11</title>
<path fill="none" stroke="black" d="M1085.08,-1804.74C1184.84,-1804.35 1319.78,-1803.82 1427.14,-1803.4"/>
<polygon fill="black" stroke="black" points="1426.93,-1806.9 1436.91,-1803.36 1426.9,-1799.9 1426.93,-1806.9"/>
<text text-anchor="middle" x="1229.86" y="-1808.02" font-family="Times,serif" font-size="14.00">Default</text>
</g>
<!-- 12 -->
<g id="node13" class="node">
<title>12</title>
<ellipse fill="none" stroke="black" cx="2088.91" cy="-1831.37" rx="175.37" ry="18"/>
<text text-anchor="middle" x="2088.91" y="-1826.69" font-family="Times,serif" font-size="14.00">Estela ad Astra &lt;i@estela.moe&gt;</text>
</g>
<!-- 0&#45;&gt;12 -->
<g id="edge23" class="edge">
<title>0&#45;&gt;12</title>
<path fill="none" stroke="black" d="M1083.2,-1808.43C1289,-1813.12 1676.68,-1821.97 1905.93,-1827.19"/>
<polygon fill="black" stroke="black" points="1905.82,-1830.69 1915.89,-1827.42 1905.98,-1823.69 1905.82,-1830.69"/>
<text text-anchor="middle" x="1468.32" y="-1821.76" font-family="Times,serif" font-size="14.00">Default</text>
</g>
<!-- 5&#45;&gt;1 -->
<g id="edge2" class="edge">
<title>5&#45;&gt;1</title>
<path fill="none" stroke="black" d="M1413.32,-1213.77C1221.58,-1182.69 792.29,-1113.08 589.25,-1080.16"/>
<polygon fill="black" stroke="black" points="589.91,-1076.72 579.48,-1078.58 588.79,-1083.63 589.91,-1076.72"/>
<text text-anchor="middle" x="975.04" y="-1150.92" font-family="Times,serif" font-size="14.00">Default</text>
</g>
<!-- 5&#45;&gt;3 -->
<g id="edge5" class="edge">
<title>5&#45;&gt;3</title>
<path fill="none" stroke="black" d="M1484.97,-1211.06C1389.35,-1139.34 1039.79,-877.14 930.23,-794.96"/>
<polygon fill="black" stroke="black" points="932.59,-792.35 922.49,-789.15 928.39,-797.95 932.59,-792.35"/>
<text text-anchor="middle" x="1181.35" y="-1006.96" font-family="Times,serif" font-size="14.00">Default</text>
</g>
<!-- 5&#45;&gt;4 -->
<g id="edge6" class="edge">
<title>5&#45;&gt;4</title>
<path fill="none" stroke="black" d="M1482.93,-1247.59C1416.19,-1293.67 1240.73,-1414.83 1165,-1467.12"/>
<polygon fill="black" stroke="black" points="1163.33,-1464.02 1157.09,-1472.59 1167.31,-1469.78 1163.33,-1464.02"/>
<text text-anchor="middle" x="1297.71" y="-1361.31" font-family="Times,serif" font-size="14.00">Careful</text>
</g>
<!-- 6 -->
<g id="node7" class="node">
<title>6</title>
<ellipse fill="none" stroke="black" cx="459.83" cy="-1563.31" rx="184.31" ry="18"/>
<text text-anchor="middle" x="459.83" y="-1558.64" font-family="Times,serif" font-size="14.00">soragoto &lt;soragoto@soragoto.io&gt;</text>
</g>
<!-- 5&#45;&gt;6 -->
<g id="edge14" class="edge">
<title>5&#45;&gt;6</title>
<path fill="none" stroke="black" d="M1443.83,-1246.56C1252.46,-1302.8 696.55,-1479.75 516.69,-1541.76"/>
<polygon fill="black" stroke="black" points="515.63,-1538.42 507.32,-1545.01 517.92,-1545.04 515.63,-1538.42"/>
<text text-anchor="middle" x="954.01" y="-1398.11" font-family="Times,serif" font-size="14.00">Careful</text>
</g>
<!-- 5&#45;&gt;11 -->
<g id="edge21" class="edge">
<title>5&#45;&gt;11</title>
<path fill="none" stroke="black" d="M1512.41,-1247.77C1526.19,-1330.75 1582.56,-1670.13 1599.65,-1773.01"/>
<polygon fill="black" stroke="black" points="1596.2,-1773.56 1601.29,-1782.86 1603.1,-1772.42 1596.2,-1773.56"/>
<text text-anchor="middle" x="1529.78" y="-1514.34" font-family="Times,serif" font-size="14.00">Careful</text>
</g>
<!-- 5&#45;&gt;12 -->
<g id="edge24" class="edge">
<title>5&#45;&gt;12</title>
<path fill="none" stroke="black" d="M1523.71,-1247.75C1599.73,-1334.72 1954.56,-1703.61 2059.6,-1805.34"/>
<polygon fill="black" stroke="black" points="2057.13,-1807.82 2066.77,-1812.23 2061.98,-1802.78 2057.13,-1807.82"/>
<text text-anchor="middle" x="1765.41" y="-1530.5" font-family="Times,serif" font-size="14.00">Careful</text>
</g>
<!-- 13 -->
<g id="node14" class="node">
<title>13</title>
<ellipse fill="none" stroke="black" cx="2016.46" cy="-1335.94" rx="234.29" ry="18"/>
<text text-anchor="middle" x="2016.46" y="-1331.27" font-family="Times,serif" font-size="14.00">Coelacanthus &lt;coelacanthus@outlook.com&gt;</text>
</g>
<!-- 5&#45;&gt;13 -->
<g id="edge27" class="edge">
<title>5&#45;&gt;13</title>
<path fill="none" stroke="black" d="M1588.3,-1245.94C1678.81,-1264.97 1827.02,-1296.12 1923.15,-1316.33"/>
<polygon fill="black" stroke="black" points="1922.33,-1319.73 1932.84,-1318.37 1923.77,-1312.88 1922.33,-1319.73"/>
<text text-anchor="middle" x="1729.48" y="-1285.09" font-family="Times,serif" font-size="14.00">Careful</text>
</g>
<!-- 14 -->
<g id="node15" class="node">
<title>14</title>
<ellipse fill="none" stroke="black" cx="2177.49" cy="-930.23" rx="247.45" ry="18"/>
<text text-anchor="middle" x="2177.49" y="-925.56" font-family="Times,serif" font-size="14.00">Coelacanthus &lt;CoelacanthusHex@gmail.com&gt;</text>
</g>
<!-- 5&#45;&gt;14 -->
<g id="edge29" class="edge">
<title>5&#45;&gt;14</title>
<path fill="none" stroke="black" d="M1558.1,-1211.55C1683.42,-1159.96 2015.22,-1011.39 2134.24,-953.52"/>
<polygon fill="black" stroke="black" points="2135.63,-956.74 2143.07,-949.2 2132.55,-950.46 2135.63,-956.74"/>
<text text-anchor="middle" x="1819.92" y="-1086.49" font-family="Times,serif" font-size="14.00">Careful</text>
</g>
<!-- 16 -->
<g id="node17" class="node">
<title>16</title>
<ellipse fill="none" stroke="black" cx="2598.19" cy="-1021.06" rx="256.39" ry="18"/>
<text text-anchor="middle" x="2598.19" y="-1016.39" font-family="Times,serif" font-size="14.00">Celeste Liu (For AOSC) &lt;coelacanthus@aosc.io&gt;</text>
</g>
<!-- 5&#45;&gt;16 -->
<g id="edge33" class="edge">
<title>5&#45;&gt;16</title>
<path fill="none" stroke="black" d="M1594.33,-1213.09C1792.24,-1175.23 2283.23,-1081.31 2496.54,-1040.51"/>
<polygon fill="black" stroke="black" points="2497.07,-1043.97 2506.24,-1038.65 2495.76,-1037.09 2497.07,-1043.97"/>
<text text-anchor="middle" x="2019.19" y="-1130.75" font-family="Times,serif" font-size="14.00">Careful</text>
</g>
<!-- 17 -->
<g id="node18" class="node">
<title>17</title>
<ellipse fill="none" stroke="red" cx="1768.78" cy="-681.83" rx="201.15" ry="18"/>
<text text-anchor="middle" x="1768.78" y="-677.15" font-family="Times,serif" font-size="14.00">Coelacanthus &lt;i@coelacanthus.moe&gt;</text>
</g>
<!-- 5&#45;&gt;17 -->
<g id="edge36" class="edge">
<title>5&#45;&gt;17</title>
<path fill="none" stroke="black" d="M1517.98,-1211.13C1555.99,-1130.91 1708.63,-808.76 1755.21,-710.45"/>
<polygon fill="black" stroke="black" points="1758.35,-712.01 1759.47,-701.48 1752.02,-709.02 1758.35,-712.01"/>
<text text-anchor="middle" x="1610.35" y="-964.74" font-family="Times,serif" font-size="14.00">Careful</text>
</g>
<!-- 18 -->
<g id="node19" class="node">
<title>18</title>
<ellipse fill="none" stroke="black" cx="2517.4" cy="-1507.36" rx="345.83" ry="18"/>
<text text-anchor="middle" x="2517.4" y="-1502.69" font-family="Times,serif" font-size="14.00">Liu, Hongwu (Name on Passport) &lt;CoelacanthusHex@gmail.com&gt;</text>
</g>
<!-- 5&#45;&gt;18 -->
<g id="edge39" class="edge">
<title>5&#45;&gt;18</title>
<path fill="none" stroke="black" d="M1572.02,-1246.63C1748.4,-1295.27 2248.61,-1433.23 2440.84,-1486.25"/>
<polygon fill="black" stroke="black" points="2439.65,-1489.55 2450.22,-1488.83 2441.51,-1482.8 2439.65,-1489.55"/>
<text text-anchor="middle" x="1980.18" y="-1370.39" font-family="Times,serif" font-size="14.00">Careful</text>
</g>
<!-- 6&#45;&gt;4 -->
<g id="edge8" class="edge">
<title>6&#45;&gt;4</title>
<path fill="none" stroke="black" d="M585.76,-1549.85C691.26,-1538.57 842.84,-1522.37 959.14,-1509.94"/>
<polygon fill="black" stroke="black" points="959.2,-1513.45 968.77,-1508.91 958.46,-1506.49 959.2,-1513.45"/>
<text text-anchor="middle" x="746.2" y="-1533.85" font-family="Times,serif" font-size="14.00">Default</text>
</g>
<!-- 6&#45;&gt;5 -->
<g id="edge10" class="edge">
<title>6&#45;&gt;5</title>
<path fill="none" stroke="black" d="M525.35,-1546.1C716.72,-1489.86 1272.63,-1312.9 1452.49,-1250.9"/>
<polygon fill="black" stroke="black" points="1453.55,-1254.23 1461.86,-1247.65 1451.26,-1247.62 1453.55,-1254.23"/>
<text text-anchor="middle" x="1015.17" y="-1402.45" font-family="Times,serif" font-size="14.00">Default</text>
</g>
<!-- 7 -->
<g id="node8" class="node">
<title>7</title>
<ellipse fill="none" stroke="black" cx="3200.19" cy="-1909.97" rx="175.37" ry="18"/>
<text text-anchor="middle" x="3200.19" y="-1905.3" font-family="Times,serif" font-size="14.00">Estela ad Astra &lt;jo@estela.cat&gt;</text>
</g>
<!-- 8 -->
<g id="node9" class="node">
<title>8</title>
<ellipse fill="none" stroke="red" cx="2902.55" cy="-2517.06" rx="125.92" ry="18"/>
<text text-anchor="middle" x="2902.55" y="-2512.38" font-family="Times,serif" font-size="14.00">saeziae &lt;i@estela.cn&gt;</text>
</g>
<!-- 9 -->
<g id="node10" class="node">
<title>9</title>
<ellipse fill="none" stroke="red" cx="2369.27" cy="-2854.01" rx="169.58" ry="18"/>
<text text-anchor="middle" x="2369.27" y="-2849.33" font-family="Times,serif" font-size="14.00">Estela ad Astra &lt;i@estela.cat&gt;</text>
</g>
<!-- 10 -->
<g id="node11" class="node">
<title>10</title>
<ellipse fill="none" stroke="black" cx="1714.76" cy="-2805.8" rx="196.94" ry="18"/>
<text text-anchor="middle" x="1714.76" y="-2801.13" font-family="Times,serif" font-size="14.00">Estela ad Astra &lt;work@estela.moe&gt;</text>
</g>
<!-- 12&#45;&gt;4 -->
<g id="edge7" class="edge">
<title>12&#45;&gt;4</title>
<path fill="none" stroke="black" d="M2039.01,-1813.7C1877.64,-1756.59 1370.11,-1576.96 1191.93,-1513.89"/>
<polygon fill="black" stroke="black" points="1193.2,-1510.63 1182.6,-1510.59 1190.86,-1517.23 1193.2,-1510.63"/>
<text text-anchor="middle" x="1589.22" y="-1667.75" font-family="Times,serif" font-size="14.00">Default</text>
</g>
<!-- 12&#45;&gt;5 -->
<g id="edge13" class="edge">
<title>12&#45;&gt;5</title>
<path fill="none" stroke="black" d="M2074.55,-1812.96C1998.53,-1725.99 1643.7,-1357.1 1538.66,-1255.37"/>
<polygon fill="black" stroke="black" points="1541.13,-1252.89 1531.49,-1248.48 1536.28,-1257.94 1541.13,-1252.89"/>
<text text-anchor="middle" x="1830.6" y="-1538.11" font-family="Times,serif" font-size="14.00">Casual</text>
</g>
<!-- 12&#45;&gt;7 -->
<g id="edge15" class="edge">
<title>12&#45;&gt;7</title>
<path fill="none" stroke="black" d="M2234.76,-1841.68C2444.04,-1856.49 2827.94,-1883.64 3043.21,-1898.87"/>
<polygon fill="black" stroke="black" points="3042.87,-1902.35 3053.09,-1899.57 3043.36,-1895.37 3042.87,-1902.35"/>
<text text-anchor="middle" x="2612.74" y="-1874.23" font-family="Times,serif" font-size="14.00">Careful</text>
</g>
<!-- 12&#45;&gt;8 -->
<g id="edge16" class="edge">
<title>12&#45;&gt;8</title>
<path fill="none" stroke="black" d="M2110.68,-1849.71C2223.46,-1944.76 2741.28,-2381.15 2872.34,-2491.6"/>
<polygon fill="black" stroke="black" points="2870.04,-2494.24 2879.94,-2498.01 2874.55,-2488.88 2870.04,-2494.24"/>
<text text-anchor="middle" x="2465.26" y="-2174.6" font-family="Times,serif" font-size="14.00">Careful</text>
</g>
<!-- 12&#45;&gt;9 -->
<g id="edge17" class="edge">
<title>12&#45;&gt;9</title>
<path fill="none" stroke="black" d="M2093.9,-1849.55C2127.41,-1971.78 2319.75,-2673.39 2361.34,-2825.09"/>
<polygon fill="black" stroke="black" points="2357.86,-2825.63 2363.88,-2834.35 2364.61,-2823.78 2357.86,-2825.63"/>
<text text-anchor="middle" x="2201.37" y="-2341.27" font-family="Times,serif" font-size="14.00">Careful</text>
</g>
<!-- 12&#45;&gt;10 -->
<g id="edge18" class="edge">
<title>12&#45;&gt;10</title>
<path fill="none" stroke="black" d="M2081.94,-1849.54C2036.45,-1967.99 1782.22,-2630.13 1725.84,-2776.96"/>
<polygon fill="black" stroke="black" points="1722.7,-2775.37 1722.38,-2785.96 1729.23,-2777.88 1722.7,-2775.37"/>
<text text-anchor="middle" x="1877.64" y="-2317.2" font-family="Times,serif" font-size="14.00">Careful</text>
</g>
<!-- 12&#45;&gt;11 -->
<g id="edge19" class="edge">
<title>12&#45;&gt;11</title>
<path fill="none" stroke="black" d="M1935.67,-1822.3C1880.57,-1819.04 1818.35,-1815.36 1762.83,-1812.07"/>
<polygon fill="black" stroke="black" points="1763.16,-1808.59 1752.97,-1811.49 1762.75,-1815.57 1763.16,-1808.59"/>
<text text-anchor="middle" x="1823" y="-1821.14" font-family="Times,serif" font-size="14.00">Careful</text>
</g>
<!-- 12&#45;&gt;13 -->
<g id="edge28" class="edge">
<title>12&#45;&gt;13</title>
<path fill="none" stroke="black" d="M2086.25,-1813.15C2075.38,-1738.8 2034.3,-1457.97 2020.79,-1365.6"/>
<polygon fill="black" stroke="black" points="2024.27,-1365.21 2019.36,-1355.83 2017.35,-1366.23 2024.27,-1365.21"/>
<text text-anchor="middle" x="2027.27" y="-1593.32" font-family="Times,serif" font-size="14.00">Careful</text>
</g>
<!-- 12&#45;&gt;14 -->
<g id="edge30" class="edge">
<title>12&#45;&gt;14</title>
<path fill="none" stroke="black" d="M2092.81,-1813.16C2109.92,-1700.73 2169.04,-1100.94 2177.19,-959.93"/>
<polygon fill="black" stroke="black" points="2180.68,-960.12 2177.71,-949.95 2173.69,-959.76 2180.68,-960.12"/>
<text text-anchor="middle" x="2108.75" y="-1390.5" font-family="Times,serif" font-size="14.00">Careful</text>
</g>
<!-- 12&#45;&gt;16 -->
<g id="edge34" class="edge">
<title>12&#45;&gt;16</title>
<path fill="none" stroke="black" d="M2100.51,-1812.92C2167.03,-1707.07 2500.1,-1177.13 2580.64,-1048.99"/>
<polygon fill="black" stroke="black" points="2583.45,-1051.09 2585.81,-1040.76 2577.52,-1047.37 2583.45,-1051.09"/>
<text text-anchor="middle" x="2314.32" y="-1434.91" font-family="Times,serif" font-size="14.00">Careful</text>
</g>
<!-- 12&#45;&gt;17 -->
<g id="edge37" class="edge">
<title>12&#45;&gt;17</title>
<path fill="none" stroke="black" d="M2083.88,-1813.31C2047.33,-1682.07 1822.62,-875.15 1776.89,-710.96"/>
<polygon fill="black" stroke="black" points="1780.38,-710.42 1774.32,-701.73 1773.63,-712.3 1780.38,-710.42"/>
<text text-anchor="middle" x="1904.14" y="-1266.09" font-family="Times,serif" font-size="14.00">Careful</text>
</g>
<!-- 12&#45;&gt;18 -->
<g id="edge40" class="edge">
<title>12&#45;&gt;18</title>
<path fill="none" stroke="black" d="M2112.87,-1813.25C2185.08,-1758.65 2400.76,-1595.56 2484.06,-1532.57"/>
<polygon fill="black" stroke="black" points="2486.01,-1535.48 2491.87,-1526.66 2481.79,-1529.9 2486.01,-1535.48"/>
<text text-anchor="middle" x="2272.21" y="-1676.86" font-family="Times,serif" font-size="14.00">Careful</text>
</g>
<!-- 14&#45;&gt;5 -->
<g id="edge12" class="edge">
<title>14&#45;&gt;5</title>
<path fill="none" stroke="black" d="M2128.2,-948.25C2002.28,-1000.11 1670.49,-1148.69 1552.08,-1206.3"/>
<polygon fill="black" stroke="black" points="1550.75,-1203.05 1543.31,-1210.6 1553.83,-1209.34 1550.75,-1203.05"/>
<text text-anchor="middle" x="1816.14" y="-1063.98" font-family="Times,serif" font-size="14.00">Casual</text>
</g>
<!-- 14&#45;&gt;11 -->
<g id="edge22" class="edge">
<title>14&#45;&gt;11</title>
<path fill="none" stroke="black" d="M2165.52,-948.45C2092.86,-1059.12 1710.96,-1640.71 1622.77,-1775.02"/>
<polygon fill="black" stroke="black" points="1619.88,-1773.04 1617.32,-1783.32 1625.73,-1776.88 1619.88,-1773.04"/>
<text text-anchor="middle" x="1867.9" y="-1365.68" font-family="Times,serif" font-size="14.00">Careful</text>
</g>
<!-- 14&#45;&gt;12 -->
<g id="edge25" class="edge">
<title>14&#45;&gt;12</title>
<path fill="none" stroke="black" d="M2173.59,-948.43C2156.48,-1060.87 2097.36,-1660.66 2089.21,-1801.67"/>
<polygon fill="black" stroke="black" points="2085.72,-1801.48 2088.69,-1811.65 2092.71,-1801.84 2085.72,-1801.48"/>
<text text-anchor="middle" x="2105.15" y="-1361.75" font-family="Times,serif" font-size="14.00">Careful</text>
</g>
<!-- 14&#45;&gt;13 -->
<g id="edge26" class="edge">
<title>14&#45;&gt;13</title>
<path fill="none" stroke="black" d="M2170.15,-948.72C2144.52,-1013.29 2058.88,-1229.06 2027.82,-1307.3"/>
<polygon fill="black" stroke="black" points="2024.65,-1305.82 2024.21,-1316.4 2031.15,-1308.4 2024.65,-1305.82"/>
<text text-anchor="middle" x="2072.74" y="-1131.96" font-family="Times,serif" font-size="14.00">Careful</text>
</g>
<!-- 15 -->
<g id="node16" class="node">
<title>15</title>
<ellipse fill="none" stroke="black" cx="2651.41" cy="-18" rx="214.3" ry="18"/>
<text text-anchor="middle" x="2651.41" y="-13.32" font-family="Times,serif" font-size="14.00">Celeste Liu &lt;uwu@coelacanthus.name&gt;</text>
</g>
<!-- 14&#45;&gt;15 -->
<g id="edge31" class="edge">
<title>14&#45;&gt;15</title>
<path fill="none" stroke="black" d="M2186.95,-912.01C2246.08,-798.21 2564.43,-185.43 2636.78,-46.17"/>
<polygon fill="black" stroke="black" points="2639.72,-48.1 2641.23,-37.61 2633.51,-44.87 2639.72,-48.1"/>
<text text-anchor="middle" x="2385.62" y="-483.04" font-family="Times,serif" font-size="14.00">Careful</text>
</g>
<!-- 14&#45;&gt;16 -->
<g id="edge32" class="edge">
<title>14&#45;&gt;16</title>
<path fill="none" stroke="black" d="M2258.11,-947.64C2328.91,-962.92 2431.89,-985.16 2505.96,-1001.15"/>
<polygon fill="black" stroke="black" points="2505.14,-1004.55 2515.65,-1003.24 2506.61,-997.71 2505.14,-1004.55"/>
<text text-anchor="middle" x="2355.78" y="-978.34" font-family="Times,serif" font-size="14.00">Careful</text>
</g>
<!-- 14&#45;&gt;17 -->
<g id="edge35" class="edge">
<title>14&#45;&gt;17</title>
<path fill="none" stroke="black" d="M2147.43,-911.97C2074.88,-867.87 1890.11,-755.57 1808.53,-705.99"/>
<polygon fill="black" stroke="black" points="1810.53,-703.11 1800.17,-700.9 1806.9,-709.09 1810.53,-703.11"/>
<text text-anchor="middle" x="1951.73" y="-812.93" font-family="Times,serif" font-size="14.00">Careful</text>
</g>
<!-- 14&#45;&gt;18 -->
<g id="edge38" class="edge">
<title>14&#45;&gt;18</title>
<path fill="none" stroke="black" d="M2188.22,-948.46C2237.38,-1031.92 2441.14,-1377.89 2500.87,-1479.3"/>
<polygon fill="black" stroke="black" points="2497.8,-1480.99 2505.89,-1487.83 2503.83,-1477.43 2497.8,-1480.99"/>
<text text-anchor="middle" x="2318.3" y="-1217.83" font-family="Times,serif" font-size="14.00">Careful</text>
</g>
</g>
</svg>
