<?xml version="1.0" encoding="UTF-8" standalone="no"?>
<!DOCTYPE svg PUBLIC "-//W3C//DTD SVG 1.1//EN"
 "http://www.w3.org/Graphics/SVG/1.1/DTD/svg11.dtd">
<!-- Generated by graphviz version 12.2.0 (0)
 -->
<!-- Pages: 1 -->
<svg width="3530pt" height="2980pt"
 viewBox="0.00 0.00 3529.74 2980.13" xmlns="http://www.w3.org/2000/svg" xmlns:xlink="http://www.w3.org/1999/xlink">
<g id="graph0" class="graph" transform="scale(1 1) rotate(0) translate(4 2976.13)">
<polygon fill="white" stroke="none" points="-4,4 -4,-2976.13 3525.74,-2976.13 3525.74,4 -4,4"/>
<!-- 0 -->
<g id="node1" class="node">
<title>0</title>
<ellipse fill="none" stroke="black" cx="390.75" cy="-2632.29" rx="196.94" ry="18"/>
<text text-anchor="middle" x="390.75" y="-2627.61" font-family="Times,serif" font-size="14.00">Estela ad Astra &lt;work@estela.moe&gt;</text>
</g>
<!-- 1 -->
<g id="node2" class="node">
<title>1</title>
<ellipse fill="none" stroke="black" cx="834.76" cy="-2954.13" rx="175.37" ry="18"/>
<text text-anchor="middle" x="834.76" y="-2949.45" font-family="Times,serif" font-size="14.00">Estela ad Astra &lt;jo@estela.cat&gt;</text>
</g>
<!-- 2 -->
<g id="node3" class="node">
<title>2</title>
<ellipse fill="none" stroke="black" cx="1248.67" cy="-1952.5" rx="175.37" ry="18"/>
<text text-anchor="middle" x="1248.67" y="-1947.83" font-family="Times,serif" font-size="14.00">Estela ad Astra &lt;i@estela.moe&gt;</text>
</g>
<!-- 2&#45;&gt;0 -->
<g id="edge1" class="edge">
<title>2&#45;&gt;0</title>
<path fill="none" stroke="black" d="M1225.72,-1970.69C1106.81,-2064.91 560.9,-2497.47 422.65,-2607.02"/>
<polygon fill="black" stroke="black" points="420.62,-2604.16 414.96,-2613.11 424.97,-2609.64 420.62,-2604.16"/>
<text text-anchor="middle" x="797.93" y="-2292.8" font-family="Times,serif" font-size="14.00">Careful</text>
</g>
<!-- 2&#45;&gt;1 -->
<g id="edge2" class="edge">
<title>2&#45;&gt;1</title>
<path fill="none" stroke="black" d="M1241.13,-1970.74C1191.21,-2091.55 908.33,-2776.11 846.64,-2925.39"/>
<polygon fill="black" stroke="black" points="843.44,-2923.97 842.86,-2934.55 849.91,-2926.64 843.44,-2923.97"/>
<text text-anchor="middle" x="1017.64" y="-2452.02" font-family="Times,serif" font-size="14.00">Careful</text>
</g>
<!-- 3 -->
<g id="node4" class="node">
<title>3</title>
<ellipse fill="none" stroke="red" cx="201.96" cy="-1607.95" rx="125.92" ry="18"/>
<text text-anchor="middle" x="201.96" y="-1603.28" font-family="Times,serif" font-size="14.00">saeziae &lt;i@estela.cn&gt;</text>
</g>
<!-- 2&#45;&gt;3 -->
<g id="edge6" class="edge">
<title>2&#45;&gt;3</title>
<path fill="none" stroke="black" d="M1195.32,-1934.94C1018.56,-1876.76 452.57,-1690.45 263.85,-1628.33"/>
<polygon fill="black" stroke="black" points="265.06,-1625.04 254.47,-1625.24 262.87,-1631.69 265.06,-1625.04"/>
<text text-anchor="middle" x="703.34" y="-1785.59" font-family="Times,serif" font-size="14.00">Careful</text>
</g>
<!-- 4 -->
<g id="node5" class="node">
<title>4</title>
<ellipse fill="none" stroke="black" cx="1864.76" cy="-1626.09" rx="165.9" ry="18"/>
<text text-anchor="middle" x="1864.76" y="-1621.42" font-family="Times,serif" font-size="14.00">Estela ad Astra &lt;i@estela.cn&gt;</text>
</g>
<!-- 2&#45;&gt;4 -->
<g id="edge7" class="edge">
<title>2&#45;&gt;4</title>
<path fill="none" stroke="black" d="M1282.67,-1934.49C1387.23,-1879.09 1703.98,-1711.27 1820.84,-1649.36"/>
<polygon fill="black" stroke="black" points="1822.32,-1652.53 1829.52,-1644.76 1819.05,-1646.35 1822.32,-1652.53"/>
<text text-anchor="middle" x="1525.5" y="-1795.88" font-family="Times,serif" font-size="14.00">Careful</text>
</g>
<!-- 5 -->
<g id="node6" class="node">
<title>5</title>
<ellipse fill="none" stroke="red" cx="169.58" cy="-2161.56" rx="169.58" ry="18"/>
<text text-anchor="middle" x="169.58" y="-2156.89" font-family="Times,serif" font-size="14.00">Estela ad Astra &lt;i@estela.cat&gt;</text>
</g>
<!-- 2&#45;&gt;5 -->
<g id="edge11" class="edge">
<title>2&#45;&gt;5</title>
<path fill="none" stroke="black" d="M1164.89,-1968.74C966.99,-2007.08 471.62,-2103.05 263.74,-2143.32"/>
<polygon fill="black" stroke="black" points="263.2,-2139.86 254.05,-2145.2 264.53,-2146.73 263.2,-2139.86"/>
<text text-anchor="middle" x="688.07" y="-2059.98" font-family="Times,serif" font-size="14.00">Careful</text>
</g>
<!-- 6 -->
<g id="node7" class="node">
<title>6</title>
<ellipse fill="none" stroke="black" cx="2236.07" cy="-2274.14" rx="404.75" ry="18"/>
<text text-anchor="middle" x="2236.07" y="-2269.47" font-family="Times,serif" font-size="14.00">Cryolitia (https://github.com/project&#45;trans only) &lt;cryolitia@project&#45;trans.org&gt;</text>
</g>
<!-- 2&#45;&gt;6 -->
<g id="edge14" class="edge">
<title>2&#45;&gt;6</title>
<path fill="none" stroke="black" d="M1302.46,-1970.03C1470.37,-2024.72 1984.59,-2192.22 2169.21,-2252.36"/>
<polygon fill="black" stroke="black" points="2168.07,-2255.67 2178.66,-2255.44 2170.24,-2249.02 2168.07,-2255.67"/>
<text text-anchor="middle" x="1709.58" y="-2115.14" font-family="Times,serif" font-size="14.00">Default</text>
</g>
<!-- 7 -->
<g id="node8" class="node">
<title>7</title>
<ellipse fill="none" stroke="black" cx="2325.75" cy="-1828.66" rx="179.05" ry="18"/>
<text text-anchor="middle" x="2325.75" y="-1823.99" font-family="Times,serif" font-size="14.00">Cryolitia &lt;Cryolitia@gmail.com&gt;</text>
</g>
<!-- 2&#45;&gt;7 -->
<g id="edge21" class="edge">
<title>2&#45;&gt;7</title>
<path fill="none" stroke="black" d="M1387.81,-1941.24C1604.67,-1919.19 2018.8,-1871.43 2216.04,-1845.6"/>
<polygon fill="black" stroke="black" points="2216.33,-1849.09 2225.78,-1844.31 2215.41,-1842.15 2216.33,-1849.09"/>
<text text-anchor="middle" x="1777.93" y="-1897.37" font-family="Times,serif" font-size="14.00">Casual</text>
</g>
<!-- 12 -->
<g id="node13" class="node">
<title>12</title>
<ellipse fill="none" stroke="red" cx="1957.98" cy="-1197.56" rx="201.15" ry="18"/>
<text text-anchor="middle" x="1957.98" y="-1192.89" font-family="Times,serif" font-size="14.00">Coelacanthus &lt;i@coelacanthus.moe&gt;</text>
</g>
<!-- 2&#45;&gt;12 -->
<g id="edge29" class="edge">
<title>2&#45;&gt;12</title>
<path fill="none" stroke="black" d="M1265.85,-1934.22C1360.69,-1833.27 1820.03,-1344.38 1932.89,-1224.26"/>
<polygon fill="black" stroke="black" points="1935.37,-1226.73 1939.67,-1217.05 1930.27,-1221.94 1935.37,-1226.73"/>
<text text-anchor="middle" x="1573.12" y="-1583.19" font-family="Times,serif" font-size="14.00">Careful</text>
</g>
<!-- 13 -->
<g id="node14" class="node">
<title>13</title>
<ellipse fill="none" stroke="black" cx="1501.05" cy="-1194.75" rx="247.45" ry="18"/>
<text text-anchor="middle" x="1501.05" y="-1190.08" font-family="Times,serif" font-size="14.00">Coelacanthus &lt;CoelacanthusHex@gmail.com&gt;</text>
</g>
<!-- 2&#45;&gt;13 -->
<g id="edge31" class="edge">
<title>2&#45;&gt;13</title>
<path fill="none" stroke="black" d="M1257.23,-1934.13C1296.83,-1833.44 1458.39,-1348.85 1494.21,-1224.09"/>
<polygon fill="black" stroke="black" points="1497.53,-1225.19 1496.86,-1214.62 1490.79,-1223.3 1497.53,-1225.19"/>
<text text-anchor="middle" x="1349.47" y="-1583.06" font-family="Times,serif" font-size="14.00">Careful</text>
</g>
<!-- 15 -->
<g id="node16" class="node">
<title>15</title>
<ellipse fill="none" stroke="black" cx="1700.58" cy="-2039.46" rx="345.83" ry="18"/>
<text text-anchor="middle" x="1700.58" y="-2034.78" font-family="Times,serif" font-size="14.00">Liu, Hongwu (Name on Passport) &lt;CoelacanthusHex@gmail.com&gt;</text>
</g>
<!-- 2&#45;&gt;15 -->
<g id="edge35" class="edge">
<title>2&#45;&gt;15</title>
<path fill="none" stroke="black" d="M1332.88,-1968.71C1407.63,-1983.09 1517.1,-2004.15 1597.16,-2019.56"/>
<polygon fill="black" stroke="black" points="1596.29,-2022.95 1606.77,-2021.41 1597.61,-2016.08 1596.29,-2022.95"/>
<text text-anchor="middle" x="1438.77" y="-1998.08" font-family="Times,serif" font-size="14.00">Careful</text>
</g>
<!-- 16 -->
<g id="node17" class="node">
<title>16</title>
<ellipse fill="none" stroke="black" cx="1292.19" cy="-1399.85" rx="256.39" ry="18"/>
<text text-anchor="middle" x="1292.19" y="-1395.17" font-family="Times,serif" font-size="14.00">Celeste Liu (For AOSC) &lt;coelacanthus@aosc.io&gt;</text>
</g>
<!-- 2&#45;&gt;16 -->
<g id="edge38" class="edge">
<title>2&#45;&gt;16</title>
<path fill="none" stroke="black" d="M1250.12,-1934.12C1256.47,-1853.39 1281.95,-1529.95 1289.84,-1429.65"/>
<polygon fill="black" stroke="black" points="1293.32,-1430.06 1290.62,-1419.81 1286.34,-1429.51 1293.32,-1430.06"/>
<text text-anchor="middle" x="1243.73" y="-1685.84" font-family="Times,serif" font-size="14.00">Careful</text>
</g>
<!-- 17 -->
<g id="node18" class="node">
<title>17</title>
<ellipse fill="none" stroke="black" cx="1485.3" cy="-1729.18" rx="234.29" ry="18"/>
<text text-anchor="middle" x="1485.3" y="-1724.51" font-family="Times,serif" font-size="14.00">Coelacanthus &lt;coelacanthus@outlook.com&gt;</text>
</g>
<!-- 2&#45;&gt;17 -->
<g id="edge41" class="edge">
<title>2&#45;&gt;17</title>
<path fill="none" stroke="black" d="M1268.03,-1934.23C1310,-1894.63 1409.43,-1800.78 1457.86,-1755.09"/>
<polygon fill="black" stroke="black" points="1460.03,-1757.84 1464.9,-1748.44 1455.23,-1752.75 1460.03,-1757.84"/>
<text text-anchor="middle" x="1336.7" y="-1848.61" font-family="Times,serif" font-size="14.00">Careful</text>
</g>
<!-- 7&#45;&gt;2 -->
<g id="edge4" class="edge">
<title>7&#45;&gt;2</title>
<path fill="none" stroke="black" d="M2184.96,-1840.1C1967.37,-1862.25 1554.06,-1909.92 1357.62,-1935.67"/>
<polygon fill="black" stroke="black" points="1357.38,-1932.17 1347.92,-1936.95 1358.3,-1939.11 1357.38,-1932.17"/>
<text text-anchor="middle" x="1745.04" y="-1874.58" font-family="Times,serif" font-size="14.00">Careful</text>
</g>
<!-- 7&#45;&gt;4 -->
<g id="edge9" class="edge">
<title>7&#45;&gt;4</title>
<path fill="none" stroke="black" d="M2284.84,-1810.69C2200.59,-1773.66 2007.89,-1688.99 1915.71,-1648.48"/>
<polygon fill="black" stroke="black" points="1917.19,-1645.31 1906.63,-1644.49 1914.38,-1651.72 1917.19,-1645.31"/>
<text text-anchor="middle" x="2074.03" y="-1733.53" font-family="Times,serif" font-size="14.00">Careful</text>
</g>
<!-- 7&#45;&gt;6 -->
<g id="edge12" class="edge">
<title>7&#45;&gt;6</title>
<path fill="none" stroke="black" d="M2322.07,-1846.96C2308.2,-1915.85 2259.05,-2160.01 2241.97,-2244.84"/>
<polygon fill="black" stroke="black" points="2238.58,-2243.96 2240.03,-2254.46 2245.44,-2245.34 2238.58,-2243.96"/>
<text text-anchor="middle" x="2255.77" y="-2049.85" font-family="Times,serif" font-size="14.00">Careful</text>
</g>
<!-- 9 -->
<g id="node10" class="node">
<title>9</title>
<ellipse fill="none" stroke="black" cx="3023.25" cy="-1357.21" rx="155.9" ry="18"/>
<text text-anchor="middle" x="3023.25" y="-1352.54" font-family="Times,serif" font-size="14.00">Clansty Icaria &lt;i@gao4.pw&gt;</text>
</g>
<!-- 7&#45;&gt;9 -->
<g id="edge23" class="edge">
<title>7&#45;&gt;9</title>
<path fill="none" stroke="black" d="M2352.67,-1810.47C2460.78,-1737.4 2863.5,-1465.19 2987.01,-1381.71"/>
<polygon fill="black" stroke="black" points="2988.83,-1384.7 2995.16,-1376.2 2984.91,-1378.9 2988.83,-1384.7"/>
<text text-anchor="middle" x="2643.59" y="-1600.04" font-family="Times,serif" font-size="14.00">Default</text>
</g>
<!-- 10 -->
<g id="node11" class="node">
<title>10</title>
<ellipse fill="none" stroke="black" cx="2815.66" cy="-981.66" rx="200.1" ry="18"/>
<text text-anchor="middle" x="2815.66" y="-976.99" font-family="Times,serif" font-size="14.00">Clansty Icaria &lt;hujl634@gmail.com&gt;</text>
</g>
<!-- 7&#45;&gt;10 -->
<g id="edge25" class="edge">
<title>7&#45;&gt;10</title>
<path fill="none" stroke="black" d="M2336.21,-1810.58C2398.73,-1702.5 2722.83,-1142.17 2799.43,-1009.74"/>
<polygon fill="black" stroke="black" points="2802.36,-1011.66 2804.34,-1001.25 2796.3,-1008.15 2802.36,-1011.66"/>
<text text-anchor="middle" x="2541.57" y="-1414.11" font-family="Times,serif" font-size="14.00">Default</text>
</g>
<!-- 7&#45;&gt;12 -->
<g id="edge28" class="edge">
<title>7&#45;&gt;12</title>
<path fill="none" stroke="black" d="M2315.14,-1810.46C2263.4,-1721.66 2037.44,-1333.92 1974.38,-1225.7"/>
<polygon fill="black" stroke="black" points="1977.45,-1224.03 1969.39,-1217.15 1971.4,-1227.55 1977.45,-1224.03"/>
<text text-anchor="middle" x="2118.51" y="-1522.03" font-family="Times,serif" font-size="14.00">Careful</text>
</g>
<!-- 7&#45;&gt;13 -->
<g id="edge30" class="edge">
<title>7&#45;&gt;13</title>
<path fill="none" stroke="black" d="M2305.96,-1810.5C2198.15,-1720.47 1681.77,-1323.3 1538.16,-1219.56"/>
<polygon fill="black" stroke="black" points="1540.25,-1216.75 1530.09,-1213.76 1536.17,-1222.44 1540.25,-1216.75"/>
<text text-anchor="middle" x="1895.81" y="-1518.98" font-family="Times,serif" font-size="14.00">Careful</text>
</g>
<!-- 7&#45;&gt;15 -->
<g id="edge34" class="edge">
<title>7&#45;&gt;15</title>
<path fill="none" stroke="black" d="M2273.53,-1846.27C2159.72,-1884.64 1889.63,-1975.71 1765.28,-2017.64"/>
<polygon fill="black" stroke="black" points="1764.22,-2014.31 1755.87,-2020.82 1766.46,-2020.94 1764.22,-2014.31"/>
<text text-anchor="middle" x="1993.16" y="-1935.91" font-family="Times,serif" font-size="14.00">Careful</text>
</g>
<!-- 7&#45;&gt;16 -->
<g id="edge37" class="edge">
<title>7&#45;&gt;16</title>
<path fill="none" stroke="black" d="M2282.66,-1810.78C2118.03,-1742.48 1528.92,-1498.06 1346.46,-1422.36"/>
<polygon fill="black" stroke="black" points="1348.02,-1419.22 1337.44,-1418.62 1345.34,-1425.69 1348.02,-1419.22"/>
<text text-anchor="middle" x="1788.31" y="-1603.27" font-family="Times,serif" font-size="14.00">Careful</text>
</g>
<!-- 7&#45;&gt;17 -->
<g id="edge40" class="edge">
<title>7&#45;&gt;17</title>
<path fill="none" stroke="black" d="M2208.01,-1814.73C2055.43,-1796.67 1789.67,-1765.21 1626.45,-1745.89"/>
<polygon fill="black" stroke="black" points="1627.21,-1742.45 1616.86,-1744.75 1626.38,-1749.41 1627.21,-1742.45"/>
<text text-anchor="middle" x="1890.98" y="-1784.26" font-family="Times,serif" font-size="14.00">Careful</text>
</g>
<!-- 18 -->
<g id="node19" class="node">
<title>18</title>
<ellipse fill="none" stroke="black" cx="3252.58" cy="-2580.79" rx="125.39" ry="18"/>
<text text-anchor="middle" x="3252.58" y="-2576.12" font-family="Times,serif" font-size="14.00">Lee &lt;lee@leetfs.com&gt;</text>
</g>
<!-- 7&#45;&gt;18 -->
<g id="edge43" class="edge">
<title>7&#45;&gt;18</title>
<path fill="none" stroke="black" d="M2348.21,-1846.88C2472.64,-1947.86 3077.25,-2438.52 3221.59,-2555.65"/>
<polygon fill="black" stroke="black" points="3219.28,-2558.27 3229.25,-2561.86 3223.69,-2552.84 3219.28,-2558.27"/>
<text text-anchor="middle" x="2760.9" y="-2205.21" font-family="Times,serif" font-size="14.00">Casual</text>
</g>
<!-- 19 -->
<g id="node20" class="node">
<title>19</title>
<ellipse fill="none" stroke="black" cx="3393.19" cy="-2024.22" rx="128.55" ry="18"/>
<text text-anchor="middle" x="3393.19" y="-2019.54" font-family="Times,serif" font-size="14.00">Lee &lt;lee@mtftm.com&gt;</text>
</g>
<!-- 7&#45;&gt;19 -->
<g id="edge45" class="edge">
<title>7&#45;&gt;19</title>
<path fill="none" stroke="black" d="M2413.56,-1844.75C2613.38,-1881.36 3100.39,-1970.58 3302.73,-2007.64"/>
<polygon fill="black" stroke="black" points="3301.94,-2011.06 3312.41,-2009.42 3303.2,-2004.17 3301.94,-2011.06"/>
<text text-anchor="middle" x="2834.15" y="-1930.15" font-family="Times,serif" font-size="14.00">Casual</text>
</g>
<!-- 20 -->
<g id="node21" class="node">
<title>20</title>
<ellipse fill="none" stroke="black" cx="2965.81" cy="-2343.49" rx="158.53" ry="18"/>
<text text-anchor="middle" x="2965.81" y="-2338.82" font-family="Times,serif" font-size="14.00">Lee &lt;lee@project&#45;trans.org&gt;</text>
</g>
<!-- 7&#45;&gt;20 -->
<g id="edge46" class="edge">
<title>7&#45;&gt;20</title>
<path fill="none" stroke="black" d="M2344.36,-1846.92C2432.77,-1924.89 2810.49,-2229 2929.67,-2318.6"/>
<polygon fill="black" stroke="black" points="2927.45,-2321.31 2937.56,-2324.49 2931.64,-2315.7 2927.45,-2321.31"/>
<text text-anchor="middle" x="2613.01" y="-2086.71" font-family="Times,serif" font-size="14.00">Casual</text>
</g>
<!-- 21 -->
<g id="node22" class="node">
<title>21</title>
<ellipse fill="none" stroke="black" cx="2496.24" cy="-2816.66" rx="184.31" ry="18"/>
<text text-anchor="middle" x="2496.24" y="-2811.98" font-family="Times,serif" font-size="14.00">soragoto &lt;soragoto@soragoto.io&gt;</text>
</g>
<!-- 7&#45;&gt;21 -->
<g id="edge47" class="edge">
<title>7&#45;&gt;21</title>
<path fill="none" stroke="black" d="M2326.9,-1846.99C2341.32,-1966.83 2457,-2638.25 2488.63,-2787.33"/>
<polygon fill="black" stroke="black" points="2485.14,-2787.77 2490.69,-2796.79 2491.98,-2786.28 2485.14,-2787.77"/>
<text text-anchor="middle" x="2381.51" y="-2321.11" font-family="Times,serif" font-size="14.00">Careful</text>
</g>
<!-- 8 -->
<g id="node9" class="node">
<title>8</title>
<ellipse fill="none" stroke="black" cx="2213.54" cy="-1350.46" rx="139.59" ry="18"/>
<text text-anchor="middle" x="2213.54" y="-1345.79" font-family="Times,serif" font-size="14.00">Clansty Icaria &lt;i@0w.al&gt;</text>
</g>
<!-- 8&#45;&gt;2 -->
<g id="edge3" class="edge">
<title>8&#45;&gt;2</title>
<path fill="none" stroke="black" d="M2184.66,-1368.48C2045.68,-1455.2 1445.91,-1829.43 1287.28,-1928.41"/>
<polygon fill="black" stroke="black" points="1285.82,-1925.2 1279.19,-1933.46 1289.53,-1931.14 1285.82,-1925.2"/>
<text text-anchor="middle" x="1709.72" y="-1652.4" font-family="Times,serif" font-size="14.00">Default</text>
</g>
<!-- 8&#45;&gt;4 -->
<g id="edge8" class="edge">
<title>8&#45;&gt;4</title>
<path fill="none" stroke="black" d="M2190.65,-1368.55C2130.17,-1416.34 1965.98,-1546.1 1896.49,-1601.01"/>
<polygon fill="black" stroke="black" points="1894.59,-1598.06 1888.91,-1607 1898.93,-1603.55 1894.59,-1598.06"/>
<text text-anchor="middle" x="2017.32" y="-1488.73" font-family="Times,serif" font-size="14.00">Default</text>
</g>
<!-- 8&#45;&gt;6 -->
<g id="edge16" class="edge">
<title>8&#45;&gt;6</title>
<path fill="none" stroke="black" d="M2213.99,-1368.91C2216.79,-1483.8 2231.84,-2100.88 2235.34,-2244.33"/>
<polygon fill="black" stroke="black" points="2231.84,-2244.22 2235.58,-2254.13 2238.84,-2244.05 2231.84,-2244.22"/>
<text text-anchor="middle" x="2198.42" y="-1793.32" font-family="Times,serif" font-size="14.00">Default</text>
</g>
<!-- 8&#45;&gt;7 -->
<g id="edge19" class="edge">
<title>8&#45;&gt;7</title>
<path fill="none" stroke="black" d="M2217.87,-1368.92C2234.96,-1441.77 2297.86,-1709.78 2318.87,-1799.32"/>
<polygon fill="black" stroke="black" points="2315.4,-1799.86 2321.09,-1808.79 2322.21,-1798.26 2315.4,-1799.86"/>
<text text-anchor="middle" x="2242.12" y="-1588.07" font-family="Times,serif" font-size="14.00">Default</text>
</g>
<!-- 8&#45;&gt;9 -->
<g id="edge22" class="edge">
<title>8&#45;&gt;9</title>
<path fill="none" stroke="black" d="M2353.19,-1351.63C2492.74,-1352.79 2707.35,-1354.58 2855.93,-1355.82"/>
<polygon fill="black" stroke="black" points="2855.86,-1359.32 2865.89,-1355.9 2855.92,-1352.32 2855.86,-1359.32"/>
<text text-anchor="middle" x="2578.31" y="-1357.67" font-family="Times,serif" font-size="14.00">Careful</text>
</g>
<!-- 8&#45;&gt;10 -->
<g id="edge24" class="edge">
<title>8&#45;&gt;10</title>
<path fill="none" stroke="black" d="M2242.99,-1332.42C2342.11,-1271.71 2663.72,-1074.73 2776.3,-1005.77"/>
<polygon fill="black" stroke="black" points="2777.92,-1008.88 2784.62,-1000.67 2774.27,-1002.91 2777.92,-1008.88"/>
<text text-anchor="middle" x="2483.4" y="-1173.05" font-family="Times,serif" font-size="14.00">Careful</text>
</g>
<!-- 11 -->
<g id="node12" class="node">
<title>11</title>
<ellipse fill="none" stroke="black" cx="1480.17" cy="-526.34" rx="199.57" ry="18"/>
<text text-anchor="middle" x="1480.17" y="-521.67" font-family="Times,serif" font-size="14.00">Clansty Icaria &lt;clansty@moegirl.us&gt;</text>
</g>
<!-- 8&#45;&gt;11 -->
<g id="edge26" class="edge">
<title>8&#45;&gt;11</title>
<path fill="none" stroke="black" d="M2197.19,-1332.09C2101.84,-1224.94 1617.76,-680.96 1504.09,-553.22"/>
<polygon fill="black" stroke="black" points="1506.82,-551.03 1497.56,-545.88 1501.59,-555.68 1506.82,-551.03"/>
<text text-anchor="middle" x="1824.39" y="-946.61" font-family="Times,serif" font-size="14.00">Careful</text>
</g>
<!-- 13&#45;&gt;2 -->
<g id="edge5" class="edge">
<title>13&#45;&gt;2</title>
<path fill="none" stroke="black" d="M1492.49,-1213.13C1452.89,-1313.82 1291.33,-1798.41 1255.51,-1923.17"/>
<polygon fill="black" stroke="black" points="1252.19,-1922.06 1252.85,-1932.64 1258.93,-1923.95 1252.19,-1922.06"/>
<text text-anchor="middle" x="1347.75" y="-1554.85" font-family="Times,serif" font-size="14.00">Careful</text>
</g>
<!-- 13&#45;&gt;4 -->
<g id="edge10" class="edge">
<title>13&#45;&gt;4</title>
<path fill="none" stroke="black" d="M1516.44,-1213.01C1573.73,-1280.95 1774.71,-1519.3 1842.35,-1599.52"/>
<polygon fill="black" stroke="black" points="1839.46,-1601.52 1848.58,-1606.91 1844.81,-1597.01 1839.46,-1601.52"/>
<text text-anchor="middle" x="1653.15" y="-1410.21" font-family="Times,serif" font-size="14.00">Careful</text>
</g>
<!-- 13&#45;&gt;7 -->
<g id="edge20" class="edge">
<title>13&#45;&gt;7</title>
<path fill="none" stroke="black" d="M1520.84,-1212.91C1628.66,-1302.94 2145.03,-1700.11 2288.65,-1803.86"/>
<polygon fill="black" stroke="black" points="2286.55,-1806.66 2296.72,-1809.66 2290.64,-1800.98 2286.55,-1806.66"/>
<text text-anchor="middle" x="1880.74" y="-1495.09" font-family="Times,serif" font-size="14.00">Casual</text>
</g>
<!-- 13&#45;&gt;12 -->
<g id="edge27" class="edge">
<title>13&#45;&gt;12</title>
<path fill="none" stroke="black" d="M1747.9,-1196.27C1748,-1196.27 1748.09,-1196.27 1748.19,-1196.27"/>
<polygon fill="black" stroke="black" points="1745.51,-1199.75 1755.53,-1196.32 1745.55,-1192.75 1745.51,-1199.75"/>
<text text-anchor="middle" x="1774.3" y="-1200.22" font-family="Times,serif" font-size="14.00">Careful</text>
</g>
<!-- 14 -->
<g id="node15" class="node">
<title>14</title>
<ellipse fill="none" stroke="black" cx="1554.5" cy="-18" rx="214.3" ry="18"/>
<text text-anchor="middle" x="1554.5" y="-13.32" font-family="Times,serif" font-size="14.00">Celeste Liu &lt;uwu@coelacanthus.name&gt;</text>
</g>
<!-- 13&#45;&gt;14 -->
<g id="edge32" class="edge">
<title>13&#45;&gt;14</title>
<path fill="none" stroke="black" d="M1501.89,-1176.27C1507.99,-1041.91 1545.51,-215.8 1553.14,-47.8"/>
<polygon fill="black" stroke="black" points="1556.63,-48.1 1553.59,-37.96 1549.64,-47.79 1556.63,-48.1"/>
<text text-anchor="middle" x="1501.27" y="-615.98" font-family="Times,serif" font-size="14.00">Careful</text>
</g>
<!-- 13&#45;&gt;15 -->
<g id="edge33" class="edge">
<title>13&#45;&gt;15</title>
<path fill="none" stroke="black" d="M1505.4,-1213.18C1531.02,-1321.62 1662.06,-1876.36 1693.7,-2010.32"/>
<polygon fill="black" stroke="black" points="1690.24,-2010.87 1695.94,-2019.8 1697.05,-2009.26 1690.24,-2010.87"/>
<text text-anchor="middle" x="1573.3" y="-1615.7" font-family="Times,serif" font-size="14.00">Careful</text>
</g>
<!-- 13&#45;&gt;16 -->
<g id="edge36" class="edge">
<title>13&#45;&gt;16</title>
<path fill="none" stroke="black" d="M1482.51,-1212.95C1445.36,-1249.44 1361.65,-1331.64 1318.7,-1373.81"/>
<polygon fill="black" stroke="black" points="1316.45,-1371.12 1311.76,-1380.63 1321.35,-1376.12 1316.45,-1371.12"/>
<text text-anchor="middle" x="1374.36" y="-1297.33" font-family="Times,serif" font-size="14.00">Careful</text>
</g>
<!-- 13&#45;&gt;17 -->
<g id="edge39" class="edge">
<title>13&#45;&gt;17</title>
<path fill="none" stroke="black" d="M1500.51,-1213.15C1498.18,-1292 1489.06,-1601.87 1486.18,-1699.53"/>
<polygon fill="black" stroke="black" points="1482.68,-1699.25 1485.89,-1709.35 1489.68,-1699.46 1482.68,-1699.25"/>
<text text-anchor="middle" x="1467.09" y="-1460.29" font-family="Times,serif" font-size="14.00">Careful</text>
</g>
<!-- 20&#45;&gt;6 -->
<g id="edge13" class="edge">
<title>20&#45;&gt;6</title>
<path fill="none" stroke="black" d="M2842.84,-2331.81C2727.89,-2320.88 2554.64,-2304.42 2422.65,-2291.87"/>
<polygon fill="black" stroke="black" points="2423.01,-2288.39 2412.72,-2290.93 2422.35,-2295.36 2423.01,-2288.39"/>
<text text-anchor="middle" x="2606.5" y="-2315.79" font-family="Times,serif" font-size="14.00">Default</text>
</g>
<!-- 20&#45;&gt;7 -->
<g id="edge17" class="edge">
<title>20&#45;&gt;7</title>
<path fill="none" stroke="black" d="M2947.21,-2325.23C2858.8,-2247.27 2481.07,-1943.16 2361.89,-1853.56"/>
<polygon fill="black" stroke="black" points="2364.11,-1850.85 2354,-1847.67 2359.92,-1856.46 2364.11,-1850.85"/>
<text text-anchor="middle" x="2680.8" y="-2093.35" font-family="Times,serif" font-size="14.00">Default</text>
</g>
<!-- 20&#45;&gt;18 -->
<g id="edge42" class="edge">
<title>20&#45;&gt;18</title>
<path fill="none" stroke="black" d="M2987.83,-2361.72C3038.63,-2403.75 3164.05,-2507.54 3222.14,-2555.61"/>
<polygon fill="black" stroke="black" points="3219.77,-2558.18 3229.7,-2561.86 3224.23,-2552.79 3219.77,-2558.18"/>
<text text-anchor="middle" x="3078.74" y="-2462.62" font-family="Times,serif" font-size="14.00">Careful</text>
</g>
<!-- 20&#45;&gt;19 -->
<g id="edge44" class="edge">
<title>20&#45;&gt;19</title>
<path fill="none" stroke="black" d="M2990.01,-2325.41C3062.36,-2271.37 3277.09,-2110.95 3360.01,-2049.01"/>
<polygon fill="black" stroke="black" points="3361.86,-2051.99 3367.78,-2043.2 3357.67,-2046.38 3361.86,-2051.99"/>
<text text-anchor="middle" x="3148.76" y="-2191.16" font-family="Times,serif" font-size="14.00">Careful</text>
</g>
<!-- 21&#45;&gt;6 -->
<g id="edge15" class="edge">
<title>21&#45;&gt;6</title>
<path fill="none" stroke="black" d="M2487.43,-2798.3C2449.1,-2718.36 2296.6,-2400.37 2249.8,-2302.77"/>
<polygon fill="black" stroke="black" points="2253.01,-2301.37 2245.53,-2293.86 2246.7,-2304.39 2253.01,-2301.37"/>
<text text-anchor="middle" x="2342.37" y="-2554.48" font-family="Times,serif" font-size="14.00">Default</text>
</g>
<!-- 21&#45;&gt;7 -->
<g id="edge18" class="edge">
<title>21&#45;&gt;7</title>
<path fill="none" stroke="black" d="M2495.09,-2798.33C2480.67,-2678.49 2364.99,-2007.07 2333.36,-1857.99"/>
<polygon fill="black" stroke="black" points="2336.85,-1857.55 2331.31,-1848.53 2330.01,-1859.04 2336.85,-1857.55"/>
<text text-anchor="middle" x="2440.48" y="-2332.11" font-family="Times,serif" font-size="14.00">Default</text>
</g>
</g>
</svg>
