<?xml version="1.0" encoding="UTF-8" standalone="no"?>
<!DOCTYPE svg PUBLIC "-//W3C//DTD SVG 1.1//EN"
 "http://www.w3.org/Graphics/SVG/1.1/DTD/svg11.dtd">
<!-- Generated by graphviz version 10.0.1 (0)
 -->
<!-- Pages: 1 -->
<svg width="3594pt" height="2208pt"
 viewBox="0.00 0.00 3594.17 2207.91" xmlns="http://www.w3.org/2000/svg" xmlns:xlink="http://www.w3.org/1999/xlink">
<g id="graph0" class="graph" transform="scale(1 1) rotate(0) translate(4 2203.91)">
<polygon fill="white" stroke="none" points="-4,4 -4,-2203.91 3590.17,-2203.91 3590.17,4 -4,4"/>
<!-- 0 -->
<g id="node1" class="node">
<title>0</title>
<ellipse fill="none" stroke="black" cx="199.57" cy="-2181.91" rx="199.57" ry="18"/>
<text text-anchor="middle" x="199.57" y="-2177.23" font-family="Times,serif" font-size="14.00">Clansty Icaria &lt;clansty@moegirl.us&gt;</text>
</g>
<!-- 1 -->
<g id="node2" class="node">
<title>1</title>
<ellipse fill="none" stroke="black" cx="466.16" cy="-1358.08" rx="200.1" ry="18"/>
<text text-anchor="middle" x="466.16" y="-1353.41" font-family="Times,serif" font-size="14.00">Clansty Icaria &lt;hujl634@gmail.com&gt;</text>
</g>
<!-- 2 -->
<g id="node3" class="node">
<title>2</title>
<ellipse fill="none" stroke="black" cx="1004.95" cy="-1366.81" rx="139.59" ry="18"/>
<text text-anchor="middle" x="1004.95" y="-1362.13" font-family="Times,serif" font-size="14.00">Clansty Icaria &lt;i@0w.al&gt;</text>
</g>
<!-- 2&#45;&gt;0 -->
<g id="edge1" class="edge">
<title>2&#45;&gt;0</title>
<path fill="none" stroke="black" d="M987,-1384.98C882.18,-1491.06 349.61,-2030.06 225.47,-2155.7"/>
<polygon fill="black" stroke="black" points="223.17,-2153.05 218.63,-2162.62 228.15,-2157.97 223.17,-2153.05"/>
<text text-anchor="middle" x="579.98" y="-1774.29" font-family="Times,serif" font-size="14.00">Careful</text>
</g>
<!-- 2&#45;&gt;1 -->
<g id="edge2" class="edge">
<title>2&#45;&gt;1</title>
<path fill="none" stroke="black" d="M866.2,-1364.56C808.03,-1363.62 739.14,-1362.51 675.07,-1361.47"/>
<polygon fill="black" stroke="black" points="675.15,-1357.97 665.1,-1361.31 675.04,-1364.97 675.15,-1357.97"/>
<text text-anchor="middle" x="744.38" y="-1366.97" font-family="Times,serif" font-size="14.00">Careful</text>
</g>
<!-- 3 -->
<g id="node4" class="node">
<title>3</title>
<ellipse fill="none" stroke="black" cx="429.73" cy="-836.39" rx="155.9" ry="18"/>
<text text-anchor="middle" x="429.73" y="-831.72" font-family="Times,serif" font-size="14.00">Clansty Icaria &lt;i@gao4.pw&gt;</text>
</g>
<!-- 2&#45;&gt;3 -->
<g id="edge4" class="edge">
<title>2&#45;&gt;3</title>
<path fill="none" stroke="black" d="M985.15,-1348.55C899.24,-1269.33 558.58,-955.2 457.89,-862.36"/>
<polygon fill="black" stroke="black" points="460.28,-859.8 450.56,-855.6 455.54,-864.95 460.28,-859.8"/>
<text text-anchor="middle" x="695.27" y="-1109.41" font-family="Times,serif" font-size="14.00">Careful</text>
</g>
<!-- 4 -->
<g id="node5" class="node">
<title>4</title>
<ellipse fill="none" stroke="black" cx="1434.46" cy="-830.75" rx="179.05" ry="18"/>
<text text-anchor="middle" x="1434.46" y="-826.08" font-family="Times,serif" font-size="14.00">Cryolitia &lt;Cryolitia@gmail.com&gt;</text>
</g>
<!-- 2&#45;&gt;4 -->
<g id="edge7" class="edge">
<title>2&#45;&gt;4</title>
<path fill="none" stroke="black" d="M1019.49,-1348.67C1083.02,-1269.37 1336.52,-952.99 1412.7,-857.91"/>
<polygon fill="black" stroke="black" points="1415.24,-860.34 1418.76,-850.35 1409.78,-855.96 1415.24,-860.34"/>
<text text-anchor="middle" x="1189.84" y="-1107.24" font-family="Times,serif" font-size="14.00">Default</text>
</g>
<!-- 5 -->
<g id="node6" class="node">
<title>5</title>
<ellipse fill="none" stroke="black" cx="1180.42" cy="-594.08" rx="404.75" ry="18"/>
<text text-anchor="middle" x="1180.42" y="-589.41" font-family="Times,serif" font-size="14.00">Cryolitia (https://github.com/project&#45;trans only) &lt;cryolitia@project&#45;trans.org&gt;</text>
</g>
<!-- 2&#45;&gt;5 -->
<g id="edge13" class="edge">
<title>2&#45;&gt;5</title>
<path fill="none" stroke="black" d="M1009.11,-1348.47C1032.27,-1246.51 1145.13,-749.51 1173.79,-623.28"/>
<polygon fill="black" stroke="black" points="1177.16,-624.25 1175.96,-613.73 1170.33,-622.7 1177.16,-624.25"/>
<text text-anchor="middle" x="1065.2" y="-989.83" font-family="Times,serif" font-size="14.00">Default</text>
</g>
<!-- 6 -->
<g id="node7" class="node">
<title>6</title>
<ellipse fill="none" stroke="black" cx="2299.54" cy="-1085.92" rx="175.37" ry="18"/>
<text text-anchor="middle" x="2299.54" y="-1081.25" font-family="Times,serif" font-size="14.00">Estela ad Astra &lt;i@estela.moe&gt;</text>
</g>
<!-- 2&#45;&gt;6 -->
<g id="edge14" class="edge">
<title>2&#45;&gt;6</title>
<path fill="none" stroke="black" d="M1077.33,-1351.11C1299.31,-1302.94 1970.08,-1157.4 2211.65,-1104.99"/>
<polygon fill="black" stroke="black" points="2212.31,-1108.43 2221.34,-1102.89 2210.83,-1101.59 2212.31,-1108.43"/>
<text text-anchor="middle" x="1618.24" y="-1232" font-family="Times,serif" font-size="14.00">Default</text>
</g>
<!-- 9 -->
<g id="node10" class="node">
<title>9</title>
<ellipse fill="none" stroke="black" cx="1589.12" cy="-1424.37" rx="165.9" ry="18"/>
<text text-anchor="middle" x="1589.12" y="-1419.7" font-family="Times,serif" font-size="14.00">Estela ad Astra &lt;i@estela.cn&gt;</text>
</g>
<!-- 2&#45;&gt;9 -->
<g id="edge20" class="edge">
<title>2&#45;&gt;9</title>
<path fill="none" stroke="black" d="M1116.89,-1377.84C1212.77,-1387.29 1351.13,-1400.92 1453.32,-1410.99"/>
<polygon fill="black" stroke="black" points="1452.86,-1414.46 1463.15,-1411.96 1453.54,-1407.5 1452.86,-1414.46"/>
<text text-anchor="middle" x="1258.86" y="-1398.37" font-family="Times,serif" font-size="14.00">Default</text>
</g>
<!-- 4&#45;&gt;1 -->
<g id="edge3" class="edge">
<title>4&#45;&gt;1</title>
<path fill="none" stroke="black" d="M1401.13,-848.91C1255.29,-928.33 673.28,-1245.29 509.34,-1334.57"/>
<polygon fill="black" stroke="black" points="508.04,-1331.29 500.93,-1339.15 511.38,-1337.44 508.04,-1331.29"/>
<text text-anchor="middle" x="928.99" y="-1095.69" font-family="Times,serif" font-size="14.00">Default</text>
</g>
<!-- 4&#45;&gt;3 -->
<g id="edge5" class="edge">
<title>4&#45;&gt;3</title>
<path fill="none" stroke="black" d="M1255.42,-831.76C1068.91,-832.8 779.03,-834.43 597.02,-835.45"/>
<polygon fill="black" stroke="black" points="597.23,-831.95 587.25,-835.51 597.26,-838.95 597.23,-831.95"/>
<text text-anchor="middle" x="899.97" y="-837.56" font-family="Times,serif" font-size="14.00">Default</text>
</g>
<!-- 4&#45;&gt;5 -->
<g id="edge10" class="edge">
<title>4&#45;&gt;5</title>
<path fill="none" stroke="black" d="M1414.95,-812.58C1370.25,-770.93 1260.3,-668.5 1208.4,-620.15"/>
<polygon fill="black" stroke="black" points="1210.81,-617.61 1201.11,-613.35 1206.04,-622.73 1210.81,-617.61"/>
<text text-anchor="middle" x="1285.43" y="-720.31" font-family="Times,serif" font-size="14.00">Careful</text>
</g>
<!-- 4&#45;&gt;6 -->
<g id="edge15" class="edge">
<title>4&#45;&gt;6</title>
<path fill="none" stroke="black" d="M1482.82,-848.51C1624.53,-894.74 2039.93,-1017.55 2217.51,-1066.04"/>
<polygon fill="black" stroke="black" points="2216.57,-1069.41 2227.14,-1068.66 2218.41,-1062.66 2216.57,-1069.41"/>
<text text-anchor="middle" x="1823.91" y="-961.22" font-family="Times,serif" font-size="14.00">Careful</text>
</g>
<!-- 4&#45;&gt;9 -->
<g id="edge21" class="edge">
<title>4&#45;&gt;9</title>
<path fill="none" stroke="black" d="M1439.26,-849.17C1461.45,-934.34 1554.2,-1290.35 1581.52,-1395.2"/>
<polygon fill="black" stroke="black" points="1578.09,-1395.91 1584,-1404.71 1584.86,-1394.15 1578.09,-1395.91"/>
<text text-anchor="middle" x="1484.14" y="-1126.13" font-family="Times,serif" font-size="14.00">Careful</text>
</g>
<!-- 12 -->
<g id="node13" class="node">
<title>12</title>
<ellipse fill="none" stroke="black" cx="2015.37" cy="-1511.08" rx="234.29" ry="18"/>
<text text-anchor="middle" x="2015.37" y="-1506.4" font-family="Times,serif" font-size="14.00">Coelacanthus &lt;coelacanthus@outlook.com&gt;</text>
</g>
<!-- 4&#45;&gt;12 -->
<g id="edge26" class="edge">
<title>4&#45;&gt;12</title>
<path fill="none" stroke="black" d="M1450,-848.95C1530.12,-942.78 1896.47,-1371.83 1992.35,-1484.12"/>
<polygon fill="black" stroke="black" points="1989.64,-1486.34 1998.8,-1491.67 1994.97,-1481.8 1989.64,-1486.34"/>
<text text-anchor="middle" x="1694.93" y="-1170.49" font-family="Times,serif" font-size="14.00">Careful</text>
</g>
<!-- 13 -->
<g id="node14" class="node">
<title>13</title>
<ellipse fill="none" stroke="black" cx="1804.92" cy="-277.22" rx="345.83" ry="18"/>
<text text-anchor="middle" x="1804.92" y="-272.55" font-family="Times,serif" font-size="14.00">Liu, Hongwu (Name on Passport) &lt;CoelacanthusHex@gmail.com&gt;</text>
</g>
<!-- 4&#45;&gt;13 -->
<g id="edge29" class="edge">
<title>4&#45;&gt;13</title>
<path fill="none" stroke="black" d="M1446.79,-812.34C1501.23,-730.99 1720.36,-403.56 1786.15,-305.26"/>
<polygon fill="black" stroke="black" points="1789.05,-307.22 1791.71,-296.97 1783.23,-303.33 1789.05,-307.22"/>
<text text-anchor="middle" x="1590.22" y="-562.75" font-family="Times,serif" font-size="14.00">Careful</text>
</g>
<!-- 14 -->
<g id="node15" class="node">
<title>14</title>
<ellipse fill="none" stroke="black" cx="1970.44" cy="-834.34" rx="247.45" ry="18"/>
<text text-anchor="middle" x="1970.44" y="-829.66" font-family="Times,serif" font-size="14.00">Coelacanthus &lt;CoelacanthusHex@gmail.com&gt;</text>
</g>
<!-- 4&#45;&gt;14 -->
<g id="edge31" class="edge">
<title>4&#45;&gt;14</title>
<path fill="none" stroke="black" d="M1598.88,-838.13C1637.49,-838.76 1679.5,-839.19 1720.91,-839.4"/>
<polygon fill="black" stroke="black" points="1720.76,-842.9 1730.77,-839.45 1720.79,-835.9 1720.76,-842.9"/>
<text text-anchor="middle" x="1686.14" y="-842.72" font-family="Times,serif" font-size="14.00">Careful</text>
</g>
<!-- 15 -->
<g id="node16" class="node">
<title>15</title>
<ellipse fill="none" stroke="black" cx="2169.65" cy="-252.8" rx="201.15" ry="18"/>
<text text-anchor="middle" x="2169.65" y="-248.12" font-family="Times,serif" font-size="14.00">Coelacanthus &lt;i@coelacanthus.moe&gt;</text>
</g>
<!-- 4&#45;&gt;15 -->
<g id="edge34" class="edge">
<title>4&#45;&gt;15</title>
<path fill="none" stroke="black" d="M1457.68,-812.5C1565.07,-728.08 2013.67,-375.42 2137.74,-277.89"/>
<polygon fill="black" stroke="black" points="2139.54,-280.92 2145.24,-271.99 2135.22,-275.42 2139.54,-280.92"/>
<text text-anchor="middle" x="1771.46" y="-549.14" font-family="Times,serif" font-size="14.00">Careful</text>
</g>
<!-- 16 -->
<g id="node17" class="node">
<title>16</title>
<ellipse fill="none" stroke="black" cx="2403.08" cy="-574.54" rx="256.39" ry="18"/>
<text text-anchor="middle" x="2403.08" y="-569.86" font-family="Times,serif" font-size="14.00">Celeste Liu (For AOSC) &lt;coelacanthus@aosc.io&gt;</text>
</g>
<!-- 4&#45;&gt;16 -->
<g id="edge37" class="edge">
<title>4&#45;&gt;16</title>
<path fill="none" stroke="black" d="M1499.52,-813.54C1671.61,-768.02 2138.32,-644.57 2324.68,-595.28"/>
<polygon fill="black" stroke="black" points="2325.51,-598.68 2334.28,-592.74 2323.72,-591.91 2325.51,-598.68"/>
<text text-anchor="middle" x="1885.85" y="-708.36" font-family="Times,serif" font-size="14.00">Careful</text>
</g>
<!-- 17 -->
<g id="node18" class="node">
<title>17</title>
<ellipse fill="none" stroke="black" cx="786.39" cy="-18" rx="184.31" ry="18"/>
<text text-anchor="middle" x="786.39" y="-13.32" font-family="Times,serif" font-size="14.00">soragoto &lt;soragoto@soragoto.io&gt;</text>
</g>
<!-- 4&#45;&gt;17 -->
<g id="edge39" class="edge">
<title>4&#45;&gt;17</title>
<path fill="none" stroke="black" d="M1422.59,-812.46C1345.61,-706.33 918.92,-170.91 811.09,-44.67"/>
<polygon fill="black" stroke="black" points="814.05,-42.74 804.87,-37.44 808.74,-47.31 814.05,-42.74"/>
<text text-anchor="middle" x="1090.59" y="-432.51" font-family="Times,serif" font-size="14.00">Careful</text>
</g>
<!-- 6&#45;&gt;4 -->
<g id="edge9" class="edge">
<title>6&#45;&gt;4</title>
<path fill="none" stroke="black" d="M2251.18,-1068.17C2109.56,-1021.96 1694.58,-899.28 1516.82,-850.73"/>
<polygon fill="black" stroke="black" points="1517.74,-847.35 1507.17,-848.1 1515.91,-854.11 1517.74,-847.35"/>
<text text-anchor="middle" x="1908" y="-963.4" font-family="Times,serif" font-size="14.00">Casual</text>
</g>
<!-- 6&#45;&gt;5 -->
<g id="edge11" class="edge">
<title>6&#45;&gt;5</title>
<path fill="none" stroke="black" d="M2258.71,-1067.98C2087.03,-992.53 1423.64,-700.98 1232.33,-616.9"/>
<polygon fill="black" stroke="black" points="1233.95,-613.78 1223.38,-612.96 1231.13,-620.19 1233.95,-613.78"/>
<text text-anchor="middle" x="1719.27" y="-829.14" font-family="Times,serif" font-size="14.00">Default</text>
</g>
<!-- 7 -->
<g id="node8" class="node">
<title>7</title>
<ellipse fill="none" stroke="red" cx="3460.26" cy="-1144" rx="125.92" ry="18"/>
<text text-anchor="middle" x="3460.26" y="-1139.32" font-family="Times,serif" font-size="14.00">saeziae &lt;i@estela.cn&gt;</text>
</g>
<!-- 6&#45;&gt;7 -->
<g id="edge17" class="edge">
<title>6&#45;&gt;7</title>
<path fill="none" stroke="black" d="M2458.19,-1093.86C2689.58,-1105.44 3115.33,-1126.74 3329.68,-1137.46"/>
<polygon fill="black" stroke="black" points="3329.31,-1140.95 3339.47,-1137.95 3329.66,-1133.96 3329.31,-1140.95"/>
<text text-anchor="middle" x="2867.69" y="-1119.61" font-family="Times,serif" font-size="14.00">Careful</text>
</g>
<!-- 8 -->
<g id="node9" class="node">
<title>8</title>
<ellipse fill="none" stroke="black" cx="3326.12" cy="-495.08" rx="175.37" ry="18"/>
<text text-anchor="middle" x="3326.12" y="-490.4" font-family="Times,serif" font-size="14.00">Estela ad Astra &lt;jo@estela.cat&gt;</text>
</g>
<!-- 6&#45;&gt;8 -->
<g id="edge18" class="edge">
<title>6&#45;&gt;8</title>
<path fill="none" stroke="black" d="M2331.1,-1067.75C2480.48,-981.78 3116.13,-615.94 3284.86,-518.82"/>
<polygon fill="black" stroke="black" points="3286.37,-521.99 3293.29,-513.97 3282.88,-515.92 3286.37,-521.99"/>
<text text-anchor="middle" x="2781.73" y="-797.24" font-family="Times,serif" font-size="14.00">Careful</text>
</g>
<!-- 6&#45;&gt;9 -->
<g id="edge19" class="edge">
<title>6&#45;&gt;9</title>
<path fill="none" stroke="black" d="M2261.84,-1103.88C2142.03,-1160.96 1769.99,-1338.21 1636.99,-1401.57"/>
<polygon fill="black" stroke="black" points="1635.61,-1398.35 1628.09,-1405.81 1638.62,-1404.67 1635.61,-1398.35"/>
<text text-anchor="middle" x="1923.17" y="-1256.67" font-family="Times,serif" font-size="14.00">Careful</text>
</g>
<!-- 10 -->
<g id="node11" class="node">
<title>10</title>
<ellipse fill="none" stroke="red" cx="3257.38" cy="-1730.66" rx="169.58" ry="18"/>
<text text-anchor="middle" x="3257.38" y="-1725.99" font-family="Times,serif" font-size="14.00">Estela ad Astra &lt;i@estela.cat&gt;</text>
</g>
<!-- 6&#45;&gt;10 -->
<g id="edge23" class="edge">
<title>6&#45;&gt;10</title>
<path fill="none" stroke="black" d="M2326.66,-1104.18C2462.34,-1195.51 3067,-1602.51 3221.39,-1706.44"/>
<polygon fill="black" stroke="black" points="3218.98,-1709.04 3229.23,-1711.72 3222.89,-1703.23 3218.98,-1709.04"/>
<text text-anchor="middle" x="2747.78" y="-1409.26" font-family="Times,serif" font-size="14.00">Careful</text>
</g>
<!-- 11 -->
<g id="node12" class="node">
<title>11</title>
<ellipse fill="none" stroke="black" cx="2756.36" cy="-2151.61" rx="196.94" ry="18"/>
<text text-anchor="middle" x="2756.36" y="-2146.93" font-family="Times,serif" font-size="14.00">Estela ad Astra &lt;work@estela.moe&gt;</text>
</g>
<!-- 6&#45;&gt;11 -->
<g id="edge24" class="edge">
<title>6&#45;&gt;11</title>
<path fill="none" stroke="black" d="M2307.27,-1103.97C2360.92,-1229.12 2677.33,-1967.25 2744.02,-2122.83"/>
<polygon fill="black" stroke="black" points="2740.8,-2124.19 2747.96,-2132 2747.23,-2121.43 2740.8,-2124.19"/>
<text text-anchor="middle" x="2499.4" y="-1617.35" font-family="Times,serif" font-size="14.00">Careful</text>
</g>
<!-- 6&#45;&gt;12 -->
<g id="edge27" class="edge">
<title>6&#45;&gt;12</title>
<path fill="none" stroke="black" d="M2287.33,-1104.19C2242.6,-1171.1 2087.56,-1403.07 2033.85,-1483.42"/>
<polygon fill="black" stroke="black" points="2031.02,-1481.36 2028.37,-1491.62 2036.84,-1485.25 2031.02,-1481.36"/>
<text text-anchor="middle" x="2134.34" y="-1297.76" font-family="Times,serif" font-size="14.00">Careful</text>
</g>
<!-- 6&#45;&gt;13 -->
<g id="edge30" class="edge">
<title>6&#45;&gt;13</title>
<path fill="none" stroke="black" d="M2288.28,-1067.51C2223.66,-961.87 1900.19,-432.98 1821.97,-305.09"/>
<polygon fill="black" stroke="black" points="1825.15,-303.6 1816.95,-296.89 1819.18,-307.25 1825.15,-303.6"/>
<text text-anchor="middle" x="2028.87" y="-690.25" font-family="Times,serif" font-size="14.00">Careful</text>
</g>
<!-- 6&#45;&gt;14 -->
<g id="edge32" class="edge">
<title>6&#45;&gt;14</title>
<path fill="none" stroke="black" d="M2281.54,-1067.82C2230.04,-1023.37 2081.56,-909.44 2009.94,-858.93"/>
<polygon fill="black" stroke="black" points="2012.22,-856.25 2002.02,-853.39 2008.21,-861.99 2012.22,-856.25"/>
<text text-anchor="middle" x="2119.49" y="-967.33" font-family="Times,serif" font-size="14.00">Careful</text>
</g>
<!-- 6&#45;&gt;15 -->
<g id="edge35" class="edge">
<title>6&#45;&gt;15</title>
<path fill="none" stroke="black" d="M2296.7,-1067.75C2280.06,-961.02 2195.09,-415.94 2174.26,-282.37"/>
<polygon fill="black" stroke="black" points="2177.74,-281.93 2172.74,-272.59 2170.82,-283 2177.74,-281.93"/>
<text text-anchor="middle" x="2209.23" y="-679.01" font-family="Times,serif" font-size="14.00">Careful</text>
</g>
<!-- 6&#45;&gt;16 -->
<g id="edge38" class="edge">
<title>6&#45;&gt;16</title>
<path fill="none" stroke="black" d="M2303.22,-1067.72C2318.63,-991.61 2377.99,-698.45 2397.11,-604.02"/>
<polygon fill="black" stroke="black" points="2400.53,-604.77 2399.08,-594.27 2393.67,-603.38 2400.53,-604.77"/>
<text text-anchor="middle" x="2323.91" y="-839.82" font-family="Times,serif" font-size="14.00">Careful</text>
</g>
<!-- 14&#45;&gt;4 -->
<g id="edge8" class="edge">
<title>14&#45;&gt;4</title>
<path fill="none" stroke="black" d="M1748.23,-826.19C1704.86,-825.73 1659.85,-825.5 1617.91,-825.54"/>
<polygon fill="black" stroke="black" points="1617.97,-822.04 1607.97,-825.55 1617.98,-829.04 1617.97,-822.04"/>
<text text-anchor="middle" x="1659.07" y="-812.56" font-family="Times,serif" font-size="14.00">Casual</text>
</g>
<!-- 14&#45;&gt;6 -->
<g id="edge16" class="edge">
<title>14&#45;&gt;6</title>
<path fill="none" stroke="black" d="M1988.44,-852.44C2039.94,-896.89 2188.42,-1010.82 2260.04,-1061.32"/>
<polygon fill="black" stroke="black" points="2257.76,-1064 2267.96,-1066.86 2261.77,-1058.27 2257.76,-1064"/>
<text text-anchor="middle" x="2097.99" y="-943.58" font-family="Times,serif" font-size="14.00">Careful</text>
</g>
<!-- 14&#45;&gt;9 -->
<g id="edge22" class="edge">
<title>14&#45;&gt;9</title>
<path fill="none" stroke="black" d="M1958.61,-852.64C1903.69,-937.64 1673.4,-1293.96 1607.07,-1396.6"/>
<polygon fill="black" stroke="black" points="1604.31,-1394.42 1601.82,-1404.72 1610.19,-1398.22 1604.31,-1394.42"/>
<text text-anchor="middle" x="1756.59" y="-1128.57" font-family="Times,serif" font-size="14.00">Careful</text>
</g>
<!-- 14&#45;&gt;12 -->
<g id="edge25" class="edge">
<title>14&#45;&gt;12</title>
<path fill="none" stroke="black" d="M1971.67,-852.79C1977.86,-945.99 2005.68,-1365.11 2013.38,-1481.19"/>
<polygon fill="black" stroke="black" points="2009.89,-1481.39 2014.04,-1491.13 2016.87,-1480.92 2009.89,-1481.39"/>
<text text-anchor="middle" x="1966.28" y="-1170.94" font-family="Times,serif" font-size="14.00">Careful</text>
</g>
<!-- 14&#45;&gt;13 -->
<g id="edge28" class="edge">
<title>14&#45;&gt;13</title>
<path fill="none" stroke="black" d="M1965.03,-816.12C1940.94,-735.03 1843.35,-406.58 1813.58,-306.38"/>
<polygon fill="black" stroke="black" points="1817.01,-305.62 1810.81,-297.03 1810.3,-307.62 1817.01,-305.62"/>
<text text-anchor="middle" x="1863.06" y="-565.2" font-family="Times,serif" font-size="14.00">Careful</text>
</g>
<!-- 14&#45;&gt;15 -->
<g id="edge33" class="edge">
<title>14&#45;&gt;15</title>
<path fill="none" stroke="black" d="M1976.74,-815.97C2005.46,-732.13 2124.24,-385.37 2159.65,-282"/>
<polygon fill="black" stroke="black" points="2162.94,-283.19 2162.87,-272.6 2156.32,-280.92 2162.94,-283.19"/>
<text text-anchor="middle" x="2041.94" y="-552.94" font-family="Times,serif" font-size="14.00">Careful</text>
</g>
<!-- 14&#45;&gt;16 -->
<g id="edge36" class="edge">
<title>14&#45;&gt;16</title>
<path fill="none" stroke="black" d="M2000.87,-816.07C2077.28,-770.18 2277.26,-650.09 2363.05,-598.58"/>
<polygon fill="black" stroke="black" points="2364.62,-601.72 2371.39,-593.57 2361.02,-595.71 2364.62,-601.72"/>
<text text-anchor="middle" x="2155.71" y="-711.27" font-family="Times,serif" font-size="14.00">Careful</text>
</g>
<!-- 17&#45;&gt;4 -->
<g id="edge6" class="edge">
<title>17&#45;&gt;4</title>
<path fill="none" stroke="black" d="M798.27,-36.3C875.25,-142.43 1301.94,-677.84 1409.76,-804.09"/>
<polygon fill="black" stroke="black" points="1406.81,-806.01 1415.98,-811.31 1412.11,-801.45 1406.81,-806.01"/>
<text text-anchor="middle" x="1077.77" y="-406.89" font-family="Times,serif" font-size="14.00">Default</text>
</g>
<!-- 17&#45;&gt;5 -->
<g id="edge12" class="edge">
<title>17&#45;&gt;5</title>
<path fill="none" stroke="black" d="M798.83,-36.19C855.87,-119.58 1092.46,-465.48 1161.46,-566.35"/>
<polygon fill="black" stroke="black" points="1158.39,-568.07 1166.92,-574.35 1164.17,-564.12 1158.39,-568.07"/>
<text text-anchor="middle" x="953.89" y="-305.22" font-family="Times,serif" font-size="14.00">Default</text>
</g>
</g>
</svg>
