<?xml version="1.0" encoding="UTF-8" standalone="no"?>
<!DOCTYPE svg PUBLIC "-//W3C//DTD SVG 1.1//EN"
 "http://www.w3.org/Graphics/SVG/1.1/DTD/svg11.dtd">
<!-- Generated by graphviz version 12.2.1 (0)
 -->
<!-- Pages: 1 -->
<svg width="3862pt" height="2965pt"
 viewBox="0.00 0.00 3861.86 2965.00" xmlns="http://www.w3.org/2000/svg" xmlns:xlink="http://www.w3.org/1999/xlink">
<g id="graph0" class="graph" transform="scale(1 1) rotate(0) translate(4 2961)">
<polygon fill="white" stroke="none" points="-4,4 -4,-2961 3857.86,-2961 3857.86,4 -4,4"/>
<!-- 0 -->
<g id="node1" class="node">
<title>0</title>
<ellipse fill="none" stroke="black" cx="1704.4" cy="-1166.44" rx="256.39" ry="18"/>
<text text-anchor="middle" x="1704.4" y="-1161.76" font-family="Times,serif" font-size="14.00">Celeste Liu (For AOSC) &lt;coelacanthus@aosc.io&gt;</text>
</g>
<!-- 1 -->
<g id="node2" class="node">
<title>1</title>
<ellipse fill="none" stroke="black" cx="1374.1" cy="-1070.62" rx="214.3" ry="18"/>
<text text-anchor="middle" x="1374.1" y="-1065.95" font-family="Times,serif" font-size="14.00">Celeste Liu &lt;uwu@coelacanthus.name&gt;</text>
</g>
<!-- 1&#45;&gt;0 -->
<g id="edge1" class="edge">
<title>1&#45;&gt;0</title>
<path fill="none" stroke="black" d="M1435.06,-1088.31C1490.69,-1104.44 1572.97,-1128.31 1631.94,-1145.42"/>
<polygon fill="black" stroke="black" points="1630.64,-1148.68 1641.22,-1148.11 1632.59,-1141.96 1630.64,-1148.68"/>
<text text-anchor="middle" x="1507.25" y="-1120.81" font-family="Times,serif" font-size="14.00">Careful</text>
</g>
<!-- 2 -->
<g id="node3" class="node">
<title>2</title>
<ellipse fill="none" stroke="black" cx="1321.23" cy="-536.26" rx="247.45" ry="18"/>
<text text-anchor="middle" x="1321.23" y="-531.58" font-family="Times,serif" font-size="14.00">Coelacanthus &lt;CoelacanthusHex@gmail.com&gt;</text>
</g>
<!-- 1&#45;&gt;2 -->
<g id="edge4" class="edge">
<title>1&#45;&gt;2</title>
<path fill="none" stroke="black" d="M1372.28,-1052.23C1364.48,-973.38 1333.82,-663.56 1324.16,-565.91"/>
<polygon fill="black" stroke="black" points="1327.66,-565.69 1323.19,-556.08 1320.69,-566.38 1327.66,-565.69"/>
<text text-anchor="middle" x="1374.47" y="-795.77" font-family="Times,serif" font-size="14.00">Careful</text>
</g>
<!-- 3 -->
<g id="node4" class="node">
<title>3</title>
<ellipse fill="none" stroke="black" cx="1218.88" cy="-1685.6" rx="234.29" ry="18"/>
<text text-anchor="middle" x="1218.88" y="-1680.93" font-family="Times,serif" font-size="14.00">Coelacanthus &lt;coelacanthus@outlook.com&gt;</text>
</g>
<!-- 1&#45;&gt;3 -->
<g id="edge7" class="edge">
<title>1&#45;&gt;3</title>
<path fill="none" stroke="black" d="M1369.45,-1089.03C1347.43,-1176.29 1253.47,-1548.59 1226.28,-1656.3"/>
<polygon fill="black" stroke="black" points="1222.94,-1655.25 1223.88,-1665.8 1229.72,-1656.96 1222.94,-1655.25"/>
<text text-anchor="middle" x="1271.62" y="-1376.61" font-family="Times,serif" font-size="14.00">Careful</text>
</g>
<!-- 4 -->
<g id="node5" class="node">
<title>4</title>
<ellipse fill="none" stroke="red" cx="1673.09" cy="-696.77" rx="201.15" ry="18"/>
<text text-anchor="middle" x="1673.09" y="-692.1" font-family="Times,serif" font-size="14.00">Coelacanthus &lt;i@coelacanthus.moe&gt;</text>
</g>
<!-- 1&#45;&gt;4 -->
<g id="edge10" class="edge">
<title>1&#45;&gt;4</title>
<path fill="none" stroke="black" d="M1388.72,-1052.34C1437.3,-991.59 1593.52,-796.26 1651.32,-723.99"/>
<polygon fill="black" stroke="black" points="1654.04,-726.2 1657.55,-716.2 1648.57,-721.83 1654.04,-726.2"/>
<text text-anchor="middle" x="1493.77" y="-892.11" font-family="Times,serif" font-size="14.00">Careful</text>
</g>
<!-- 5 -->
<g id="node6" class="node">
<title>5</title>
<ellipse fill="none" stroke="black" cx="1046" cy="-825.05" rx="345.83" ry="18"/>
<text text-anchor="middle" x="1046" y="-820.37" font-family="Times,serif" font-size="14.00">Liu, Hongwu (Name on Passport) &lt;CoelacanthusHex@gmail.com&gt;</text>
</g>
<!-- 1&#45;&gt;5 -->
<g id="edge13" class="edge">
<title>1&#45;&gt;5</title>
<path fill="none" stroke="black" d="M1349.7,-1052.37C1291.81,-1009.03 1146.02,-899.91 1079.74,-850.3"/>
<polygon fill="black" stroke="black" points="1081.87,-847.52 1071.77,-844.33 1077.68,-853.13 1081.87,-847.52"/>
<text text-anchor="middle" x="1188.47" y="-955.28" font-family="Times,serif" font-size="14.00">Careful</text>
</g>
<!-- 16 -->
<g id="node17" class="node">
<title>16</title>
<ellipse fill="none" stroke="black" cx="1582.16" cy="-1602.81" rx="165.9" ry="18"/>
<text text-anchor="middle" x="1582.16" y="-1598.13" font-family="Times,serif" font-size="14.00">Estela ad Astra &lt;i@estela.cn&gt;</text>
</g>
<!-- 1&#45;&gt;16 -->
<g id="edge32" class="edge">
<title>1&#45;&gt;16</title>
<path fill="none" stroke="black" d="M1381.26,-1088.94C1412.02,-1167.63 1533.08,-1477.28 1570.85,-1573.87"/>
<polygon fill="black" stroke="black" points="1567.58,-1575.12 1574.48,-1583.15 1574.1,-1572.57 1567.58,-1575.12"/>
<text text-anchor="middle" x="1449.8" y="-1335.36" font-family="Times,serif" font-size="14.00">Careful</text>
</g>
<!-- 20 -->
<g id="node21" class="node">
<title>20</title>
<ellipse fill="none" stroke="black" cx="1078.16" cy="-1323.49" rx="175.37" ry="18"/>
<text text-anchor="middle" x="1078.16" y="-1318.82" font-family="Times,serif" font-size="14.00">Estela ad Astra &lt;i@estela.moe&gt;</text>
</g>
<!-- 1&#45;&gt;20 -->
<g id="edge38" class="edge">
<title>1&#45;&gt;20</title>
<path fill="none" stroke="black" d="M1352.81,-1088.81C1301,-1133.08 1168.19,-1246.56 1108.28,-1297.76"/>
<polygon fill="black" stroke="black" points="1106.13,-1294.99 1100.8,-1304.15 1110.68,-1300.31 1106.13,-1294.99"/>
<text text-anchor="middle" x="1204.3" y="-1197.23" font-family="Times,serif" font-size="14.00">Careful</text>
</g>
<!-- 26 -->
<g id="node27" class="node">
<title>26</title>
<ellipse fill="none" stroke="black" cx="2148.17" cy="-1133.57" rx="179.05" ry="18"/>
<text text-anchor="middle" x="2148.17" y="-1128.9" font-family="Times,serif" font-size="14.00">Cryolitia &lt;Cryolitia@gmail.com&gt;</text>
</g>
<!-- 1&#45;&gt;26 -->
<g id="edge51" class="edge">
<title>1&#45;&gt;26</title>
<path fill="none" stroke="black" d="M1529.81,-1083.29C1665.61,-1094.33 1861.43,-1110.26 1996.14,-1121.21"/>
<polygon fill="black" stroke="black" points="1995.59,-1124.68 2005.84,-1122 1996.16,-1117.7 1995.59,-1124.68"/>
<text text-anchor="middle" x="1738.97" y="-1106.2" font-family="Times,serif" font-size="14.00">Casual</text>
</g>
<!-- 6 -->
<g id="node7" class="node">
<title>6</title>
<ellipse fill="none" stroke="black" cx="1732.44" cy="-2036.28" rx="139.59" ry="18"/>
<text text-anchor="middle" x="1732.44" y="-2031.61" font-family="Times,serif" font-size="14.00">Clansty Icaria &lt;i@0w.al&gt;</text>
</g>
<!-- 7 -->
<g id="node8" class="node">
<title>7</title>
<ellipse fill="none" stroke="black" cx="2418.29" cy="-2031.13" rx="200.1" ry="18"/>
<text text-anchor="middle" x="2418.29" y="-2026.45" font-family="Times,serif" font-size="14.00">Clansty Icaria &lt;hujl634@gmail.com&gt;</text>
</g>
<!-- 6&#45;&gt;7 -->
<g id="edge16" class="edge">
<title>6&#45;&gt;7</title>
<path fill="none" stroke="black" d="M1872.06,-2035.23C1968.33,-2034.51 2098.06,-2033.53 2206.94,-2032.72"/>
<polygon fill="black" stroke="black" points="2206.93,-2036.22 2216.9,-2032.64 2206.87,-2029.22 2206.93,-2036.22"/>
<text text-anchor="middle" x="2013.25" y="-2037.92" font-family="Times,serif" font-size="14.00">Careful</text>
</g>
<!-- 8 -->
<g id="node9" class="node">
<title>8</title>
<ellipse fill="none" stroke="black" cx="2102.87" cy="-2283.88" rx="155.9" ry="18"/>
<text text-anchor="middle" x="2102.87" y="-2279.21" font-family="Times,serif" font-size="14.00">Clansty Icaria &lt;i@gao4.pw&gt;</text>
</g>
<!-- 6&#45;&gt;8 -->
<g id="edge18" class="edge">
<title>6&#45;&gt;8</title>
<path fill="none" stroke="black" d="M1759.38,-2054.29C1824.78,-2098.01 1992.05,-2209.81 2066.35,-2259.48"/>
<polygon fill="black" stroke="black" points="2064.27,-2262.29 2074.52,-2264.94 2068.16,-2256.47 2064.27,-2262.29"/>
<text text-anchor="middle" x="1886.61" y="-2160.83" font-family="Times,serif" font-size="14.00">Careful</text>
</g>
<!-- 9 -->
<g id="node10" class="node">
<title>9</title>
<ellipse fill="none" stroke="black" cx="1537.92" cy="-2939" rx="199.57" ry="18"/>
<text text-anchor="middle" x="1537.92" y="-2934.32" font-family="Times,serif" font-size="14.00">Clansty Icaria &lt;clansty@moegirl.us&gt;</text>
</g>
<!-- 6&#45;&gt;9 -->
<g id="edge20" class="edge">
<title>6&#45;&gt;9</title>
<path fill="none" stroke="black" d="M1728.46,-2054.72C1704.07,-2167.94 1574.61,-2768.72 1544.29,-2909.47"/>
<polygon fill="black" stroke="black" points="1540.89,-2908.59 1542.21,-2919.1 1547.74,-2910.07 1540.89,-2908.59"/>
<text text-anchor="middle" x="1610.12" y="-2486.05" font-family="Times,serif" font-size="14.00">Careful</text>
</g>
<!-- 6&#45;&gt;16 -->
<g id="edge30" class="edge">
<title>6&#45;&gt;16</title>
<path fill="none" stroke="black" d="M1726.08,-2017.93C1702.62,-1950.28 1620.88,-1714.49 1592.2,-1631.76"/>
<polygon fill="black" stroke="black" points="1595.52,-1630.65 1588.94,-1622.35 1588.9,-1632.94 1595.52,-1630.65"/>
<text text-anchor="middle" x="1632.89" y="-1828.8" font-family="Times,serif" font-size="14.00">Default</text>
</g>
<!-- 6&#45;&gt;20 -->
<g id="edge36" class="edge">
<title>6&#45;&gt;20</title>
<path fill="none" stroke="black" d="M1715.61,-2017.95C1626.32,-1920.68 1208.22,-1465.18 1102.5,-1350"/>
<polygon fill="black" stroke="black" points="1105.24,-1347.82 1095.9,-1342.82 1100.09,-1352.56 1105.24,-1347.82"/>
<text text-anchor="middle" x="1435.3" y="-1670.67" font-family="Times,serif" font-size="14.00">Default</text>
</g>
<!-- 25 -->
<g id="node26" class="node">
<title>25</title>
<ellipse fill="none" stroke="black" cx="2161.36" cy="-1608.08" rx="404.75" ry="18"/>
<text text-anchor="middle" x="2161.36" y="-1603.41" font-family="Times,serif" font-size="14.00">Cryolitia (https://github.com/project&#45;trans only) &lt;cryolitia@project&#45;trans.org&gt;</text>
</g>
<!-- 6&#45;&gt;25 -->
<g id="edge47" class="edge">
<title>6&#45;&gt;25</title>
<path fill="none" stroke="black" d="M1750.59,-2018.16C1818.13,-1950.73 2055.04,-1714.22 2134.87,-1634.52"/>
<polygon fill="black" stroke="black" points="2137.28,-1637.06 2141.88,-1627.52 2132.33,-1632.11 2137.28,-1637.06"/>
<text text-anchor="middle" x="1916.48" y="-1830.29" font-family="Times,serif" font-size="14.00">Default</text>
</g>
<!-- 6&#45;&gt;26 -->
<g id="edge50" class="edge">
<title>6&#45;&gt;26</title>
<path fill="none" stroke="black" d="M1740.93,-2017.84C1793.18,-1904.4 2070.87,-1301.43 2134.97,-1162.25"/>
<polygon fill="black" stroke="black" points="2138.06,-1163.91 2139.06,-1153.36 2131.7,-1160.98 2138.06,-1163.91"/>
<text text-anchor="middle" x="1911.7" y="-1576.75" font-family="Times,serif" font-size="14.00">Default</text>
</g>
<!-- 10 -->
<g id="node11" class="node">
<title>10</title>
<ellipse fill="none" stroke="black" cx="2629.24" cy="-1097.89" rx="184.31" ry="18"/>
<text text-anchor="middle" x="2629.24" y="-1093.21" font-family="Times,serif" font-size="14.00">soragoto &lt;soragoto@soragoto.io&gt;</text>
</g>
<!-- 10&#45;&gt;25 -->
<g id="edge46" class="edge">
<title>10&#45;&gt;25</title>
<path fill="none" stroke="black" d="M2612.59,-1116.04C2542.32,-1192.66 2269.84,-1489.78 2186.03,-1581.18"/>
<polygon fill="black" stroke="black" points="2183.5,-1578.76 2179.32,-1588.49 2188.66,-1583.49 2183.5,-1578.76"/>
<text text-anchor="middle" x="2373.06" y="-1352.56" font-family="Times,serif" font-size="14.00">Default</text>
</g>
<!-- 10&#45;&gt;26 -->
<g id="edge49" class="edge">
<title>10&#45;&gt;26</title>
<path fill="none" stroke="black" d="M2455.76,-1104.23C2395.37,-1108.27 2328.86,-1113.37 2273.17,-1118.28"/>
<polygon fill="black" stroke="black" points="2272.98,-1114.78 2263.33,-1119.15 2273.6,-1121.75 2272.98,-1114.78"/>
<text text-anchor="middle" x="2338.22" y="-1097.95" font-family="Times,serif" font-size="14.00">Default</text>
</g>
<!-- 11 -->
<g id="node12" class="node">
<title>11</title>
<ellipse fill="none" stroke="black" cx="3666.39" cy="-2390.85" rx="187.47" ry="18"/>
<text text-anchor="middle" x="3666.39" y="-2386.18" font-family="Times,serif" font-size="14.00">Lee &lt;guanli.plct@isrc.iscas.ac.cn&gt;</text>
</g>
<!-- 12 -->
<g id="node13" class="node">
<title>12</title>
<ellipse fill="none" stroke="black" cx="2976.62" cy="-1874.32" rx="128.55" ry="18"/>
<text text-anchor="middle" x="2976.62" y="-1869.65" font-family="Times,serif" font-size="14.00">Lee &lt;lee@mtftm.com&gt;</text>
</g>
<!-- 12&#45;&gt;11 -->
<g id="edge22" class="edge">
<title>12&#45;&gt;11</title>
<path fill="none" stroke="black" d="M3000.76,-1892.4C3104.54,-1970.11 3512.84,-2275.87 3632.97,-2365.83"/>
<polygon fill="black" stroke="black" points="3630.77,-2368.55 3640.88,-2371.75 3634.97,-2362.95 3630.77,-2368.55"/>
<text text-anchor="middle" x="3290.62" y="-2133.07" font-family="Times,serif" font-size="14.00">Careful</text>
</g>
<!-- 13 -->
<g id="node14" class="node">
<title>13</title>
<ellipse fill="none" stroke="black" cx="2845.64" cy="-1504.57" rx="125.39" ry="18"/>
<text text-anchor="middle" x="2845.64" y="-1499.9" font-family="Times,serif" font-size="14.00">Lee &lt;lee@leetfs.com&gt;</text>
</g>
<!-- 12&#45;&gt;13 -->
<g id="edge24" class="edge">
<title>12&#45;&gt;13</title>
<path fill="none" stroke="black" d="M2970.12,-1855.99C2948.96,-1796.23 2881.84,-1606.78 2855.96,-1533.71"/>
<polygon fill="black" stroke="black" points="2859.31,-1532.7 2852.68,-1524.45 2852.72,-1535.04 2859.31,-1532.7"/>
<text text-anchor="middle" x="2886.79" y="-1698.8" font-family="Times,serif" font-size="14.00">Careful</text>
</g>
<!-- 14 -->
<g id="node15" class="node">
<title>14</title>
<ellipse fill="none" stroke="black" cx="3248.73" cy="-1375.73" rx="158.53" ry="18"/>
<text text-anchor="middle" x="3248.73" y="-1371.06" font-family="Times,serif" font-size="14.00">Lee &lt;lee@project&#45;trans.org&gt;</text>
</g>
<!-- 12&#45;&gt;14 -->
<g id="edge26" class="edge">
<title>12&#45;&gt;14</title>
<path fill="none" stroke="black" d="M2986.63,-1855.99C3027.72,-1780.7 3183.64,-1495.01 3233.38,-1403.86"/>
<polygon fill="black" stroke="black" points="3236.33,-1405.75 3238.05,-1395.3 3230.19,-1402.4 3236.33,-1405.75"/>
<text text-anchor="middle" x="3083.75" y="-1633.87" font-family="Times,serif" font-size="14.00">Careful</text>
</g>
<!-- 12&#45;&gt;25 -->
<g id="edge44" class="edge">
<title>12&#45;&gt;25</title>
<path fill="none" stroke="black" d="M2925,-1857.47C2782.92,-1811.07 2386.13,-1681.49 2227.81,-1629.79"/>
<polygon fill="black" stroke="black" points="2229.32,-1626.6 2218.72,-1626.82 2227.14,-1633.25 2229.32,-1626.6"/>
<text text-anchor="middle" x="2550.16" y="-1747.58" font-family="Times,serif" font-size="14.00">Default</text>
</g>
<!-- 12&#45;&gt;26 -->
<g id="edge48" class="edge">
<title>12&#45;&gt;26</title>
<path fill="none" stroke="black" d="M2959.61,-1856.18C2856.78,-1756.33 2318.75,-1275.01 2180.54,-1158.81"/>
<polygon fill="black" stroke="black" points="2183.1,-1156.39 2173.18,-1152.67 2178.61,-1161.77 2183.1,-1156.39"/>
<text text-anchor="middle" x="2543.82" y="-1511.45" font-family="Times,serif" font-size="14.00">Default</text>
</g>
<!-- 15 -->
<g id="node16" class="node">
<title>15</title>
<ellipse fill="none" stroke="black" cx="336.14" cy="-662.32" rx="175.37" ry="18"/>
<text text-anchor="middle" x="336.14" y="-657.64" font-family="Times,serif" font-size="14.00">Estela ad Astra &lt;jo@estela.cat&gt;</text>
</g>
<!-- 17 -->
<g id="node18" class="node">
<title>17</title>
<ellipse fill="none" stroke="black" cx="535.12" cy="-2114.74" rx="196.94" ry="18"/>
<text text-anchor="middle" x="535.12" y="-2110.06" font-family="Times,serif" font-size="14.00">Estela ad Astra &lt;work@estela.moe&gt;</text>
</g>
<!-- 18 -->
<g id="node19" class="node">
<title>18</title>
<ellipse fill="none" stroke="red" cx="189.09" cy="-1691.79" rx="169.58" ry="18"/>
<text text-anchor="middle" x="189.09" y="-1687.12" font-family="Times,serif" font-size="14.00">Estela ad Astra &lt;i@estela.cat&gt;</text>
</g>
<!-- 19 -->
<g id="node20" class="node">
<title>19</title>
<ellipse fill="none" stroke="red" cx="125.92" cy="-1176.16" rx="125.92" ry="18"/>
<text text-anchor="middle" x="125.92" y="-1171.48" font-family="Times,serif" font-size="14.00">saeziae &lt;i@estela.cn&gt;</text>
</g>
<!-- 20&#45;&gt;0 -->
<g id="edge3" class="edge">
<title>20&#45;&gt;0</title>
<path fill="none" stroke="black" d="M1146.07,-1306.46C1262.1,-1277.36 1498.04,-1218.19 1622.81,-1186.9"/>
<polygon fill="black" stroke="black" points="1623.49,-1190.34 1632.33,-1184.51 1621.78,-1183.55 1623.49,-1190.34"/>
<text text-anchor="middle" x="1358.19" y="-1250.63" font-family="Times,serif" font-size="14.00">Careful</text>
</g>
<!-- 20&#45;&gt;2 -->
<g id="edge6" class="edge">
<title>20&#45;&gt;2</title>
<path fill="none" stroke="black" d="M1083.81,-1305.19C1115.68,-1201.99 1272.9,-692.8 1312.27,-565.26"/>
<polygon fill="black" stroke="black" points="1315.56,-566.49 1315.16,-555.9 1308.87,-564.43 1315.56,-566.49"/>
<text text-anchor="middle" x="1171.79" y="-921.93" font-family="Times,serif" font-size="14.00">Careful</text>
</g>
<!-- 20&#45;&gt;3 -->
<g id="edge9" class="edge">
<title>20&#45;&gt;3</title>
<path fill="none" stroke="black" d="M1085.33,-1341.95C1108.25,-1400.91 1179.81,-1585.06 1207.65,-1656.69"/>
<polygon fill="black" stroke="black" points="1204.29,-1657.72 1211.18,-1665.77 1210.82,-1655.19 1204.29,-1657.72"/>
<text text-anchor="middle" x="1120.24" y="-1503.27" font-family="Times,serif" font-size="14.00">Careful</text>
</g>
<!-- 20&#45;&gt;4 -->
<g id="edge12" class="edge">
<title>20&#45;&gt;4</title>
<path fill="none" stroke="black" d="M1095.32,-1305.41C1179.45,-1216.79 1548.24,-828.29 1648.08,-723.11"/>
<polygon fill="black" stroke="black" points="1650.47,-725.69 1654.81,-716.02 1645.39,-720.87 1650.47,-725.69"/>
<text text-anchor="middle" x="1345.45" y="-1018.21" font-family="Times,serif" font-size="14.00">Careful</text>
</g>
<!-- 20&#45;&gt;5 -->
<g id="edge15" class="edge">
<title>20&#45;&gt;5</title>
<path fill="none" stroke="black" d="M1076.98,-1305.16C1072.15,-1230.36 1053.92,-947.82 1047.93,-854.88"/>
<polygon fill="black" stroke="black" points="1051.43,-854.81 1047.29,-845.06 1044.44,-855.26 1051.43,-854.81"/>
<text text-anchor="middle" x="1036.2" y="-1083.97" font-family="Times,serif" font-size="14.00">Careful</text>
</g>
<!-- 20&#45;&gt;15 -->
<g id="edge28" class="edge">
<title>20&#45;&gt;15</title>
<path fill="none" stroke="black" d="M1057.93,-1305.47C954.71,-1213.49 486.94,-796.69 365.19,-688.2"/>
<polygon fill="black" stroke="black" points="367.63,-685.69 357.84,-681.65 362.98,-690.92 367.63,-685.69"/>
<text text-anchor="middle" x="685.31" y="-1000.78" font-family="Times,serif" font-size="14.00">Careful</text>
</g>
<!-- 20&#45;&gt;16 -->
<g id="edge29" class="edge">
<title>20&#45;&gt;16</title>
<path fill="none" stroke="black" d="M1110.84,-1341.6C1198.9,-1390.41 1441.13,-1524.65 1539.65,-1579.25"/>
<polygon fill="black" stroke="black" points="1537.79,-1582.22 1548.23,-1584 1541.18,-1576.09 1537.79,-1582.22"/>
<text text-anchor="middle" x="1298.99" y="-1464.37" font-family="Times,serif" font-size="14.00">Careful</text>
</g>
<!-- 20&#45;&gt;17 -->
<g id="edge33" class="edge">
<title>20&#45;&gt;17</title>
<path fill="none" stroke="black" d="M1065.54,-1341.89C994.06,-1446.03 640.27,-1961.53 554.07,-2087.11"/>
<polygon fill="black" stroke="black" points="551.3,-2084.97 548.53,-2095.19 557.07,-2088.93 551.3,-2084.97"/>
<text text-anchor="middle" x="783.56" y="-1718.45" font-family="Times,serif" font-size="14.00">Careful</text>
</g>
<!-- 20&#45;&gt;18 -->
<g id="edge34" class="edge">
<title>20&#45;&gt;18</title>
<path fill="none" stroke="black" d="M1034.98,-1341.38C887.55,-1402.45 404.32,-1602.63 242.46,-1669.68"/>
<polygon fill="black" stroke="black" points="241.57,-1666.26 233.67,-1673.32 244.25,-1672.73 241.57,-1666.26"/>
<text text-anchor="middle" x="612.47" y="-1509.48" font-family="Times,serif" font-size="14.00">Careful</text>
</g>
<!-- 20&#45;&gt;19 -->
<g id="edge35" class="edge">
<title>20&#45;&gt;19</title>
<path fill="none" stroke="black" d="M979.4,-1308.21C796.25,-1279.87 406.06,-1219.5 223.68,-1191.28"/>
<polygon fill="black" stroke="black" points="224.41,-1187.86 213.99,-1189.79 223.34,-1194.77 224.41,-1187.86"/>
<text text-anchor="middle" x="575.29" y="-1253.7" font-family="Times,serif" font-size="14.00">Careful</text>
</g>
<!-- 20&#45;&gt;25 -->
<g id="edge45" class="edge">
<title>20&#45;&gt;25</title>
<path fill="none" stroke="black" d="M1143.48,-1340.65C1331.78,-1390.13 1875.33,-1532.94 2081.12,-1587"/>
<polygon fill="black" stroke="black" points="2080.1,-1590.35 2090.66,-1589.51 2081.88,-1583.58 2080.1,-1590.35"/>
<text text-anchor="middle" x="1586.05" y="-1467.78" font-family="Times,serif" font-size="14.00">Default</text>
</g>
<!-- 20&#45;&gt;26 -->
<g id="edge52" class="edge">
<title>20&#45;&gt;26</title>
<path fill="none" stroke="black" d="M1184.92,-1308.85C1397.49,-1274.64 1869.8,-1190.69 2063.15,-1152.6"/>
<polygon fill="black" stroke="black" points="2063.75,-1156.05 2072.88,-1150.68 2062.39,-1149.18 2063.75,-1156.05"/>
<text text-anchor="middle" x="1600.03" y="-1234.67" font-family="Times,serif" font-size="14.00">Casual</text>
</g>
<!-- 21 -->
<g id="node22" class="node">
<title>21</title>
<ellipse fill="none" stroke="red" cx="2424.91" cy="-18" rx="178.53" ry="18"/>
<text text-anchor="middle" x="2424.91" y="-13.32" font-family="Times,serif" font-size="14.00">Cryolitia &lt;cryolitia@csu.edu.cn&gt;</text>
</g>
<!-- 22 -->
<g id="node23" class="node">
<title>22</title>
<ellipse fill="none" stroke="black" cx="2934.71" cy="-341.51" rx="179.05" ry="18"/>
<text text-anchor="middle" x="2934.71" y="-336.83" font-family="Times,serif" font-size="14.00">Cryolitia &lt;cryolitia@deepin.org&gt;</text>
</g>
<!-- 23 -->
<g id="node24" class="node">
<title>23</title>
<ellipse fill="none" stroke="black" cx="2456.3" cy="-478.31" rx="207.99" ry="18"/>
<text text-anchor="middle" x="2456.3" y="-473.63" font-family="Times,serif" font-size="14.00">Cryolitia PukNgae &lt;cryolitia@aosc.io&gt;</text>
</g>
<!-- 24 -->
<g id="node25" class="node">
<title>24</title>
<ellipse fill="none" stroke="black" cx="3167.31" cy="-787.53" rx="203.78" ry="18"/>
<text text-anchor="middle" x="3167.31" y="-782.85" font-family="Times,serif" font-size="14.00">Cryolitia &lt;cryolitia@archlinuxcn.org&gt;</text>
</g>
<!-- 26&#45;&gt;0 -->
<g id="edge2" class="edge">
<title>26&#45;&gt;0</title>
<path fill="none" stroke="black" d="M2002.56,-1144.36C1967.98,-1146.92 1930.58,-1149.69 1894.35,-1152.37"/>
<polygon fill="black" stroke="black" points="1894.37,-1148.86 1884.66,-1153.09 1894.89,-1155.84 1894.37,-1148.86"/>
<text text-anchor="middle" x="1922.2" y="-1135.06" font-family="Times,serif" font-size="14.00">Careful</text>
</g>
<!-- 26&#45;&gt;2 -->
<g id="edge5" class="edge">
<title>26&#45;&gt;2</title>
<path fill="none" stroke="black" d="M2122.97,-1115.37C2003.49,-1029.07 1494.13,-661.14 1355.94,-561.33"/>
<polygon fill="black" stroke="black" points="1358.02,-558.52 1347.87,-555.5 1353.92,-564.19 1358.02,-558.52"/>
<text text-anchor="middle" x="1713.21" y="-842.3" font-family="Times,serif" font-size="14.00">Careful</text>
</g>
<!-- 26&#45;&gt;3 -->
<g id="edge8" class="edge">
<title>26&#45;&gt;3</title>
<path fill="none" stroke="black" d="M2117.52,-1151.78C1979.47,-1233.79 1415.42,-1568.86 1259.17,-1661.67"/>
<polygon fill="black" stroke="black" points="1257.59,-1658.54 1250.78,-1666.66 1261.17,-1664.56 1257.59,-1658.54"/>
<text text-anchor="middle" x="1662.1" y="-1410.68" font-family="Times,serif" font-size="14.00">Careful</text>
</g>
<!-- 26&#45;&gt;4 -->
<g id="edge11" class="edge">
<title>26&#45;&gt;4</title>
<path fill="none" stroke="black" d="M2128.36,-1115.36C2053.66,-1046.68 1788.82,-803.17 1701.35,-722.76"/>
<polygon fill="black" stroke="black" points="1703.83,-720.28 1694.1,-716.09 1699.09,-725.43 1703.83,-720.28"/>
<text text-anchor="middle" x="1888.61" y="-923.01" font-family="Times,serif" font-size="14.00">Careful</text>
</g>
<!-- 26&#45;&gt;5 -->
<g id="edge14" class="edge">
<title>26&#45;&gt;5</title>
<path fill="none" stroke="black" d="M2086.16,-1116.21C1897.1,-1063.29 1328.35,-904.09 1121.92,-846.3"/>
<polygon fill="black" stroke="black" points="1122.93,-842.95 1112.35,-843.62 1121.04,-849.69 1122.93,-842.95"/>
<text text-anchor="middle" x="1577.79" y="-985.21" font-family="Times,serif" font-size="14.00">Careful</text>
</g>
<!-- 26&#45;&gt;7 -->
<g id="edge17" class="edge">
<title>26&#45;&gt;7</title>
<path fill="none" stroke="black" d="M2153.69,-1151.91C2187.6,-1264.6 2367.7,-1863.03 2409.59,-2002.19"/>
<polygon fill="black" stroke="black" points="2406.12,-2002.81 2412.35,-2011.37 2412.82,-2000.79 2406.12,-2002.81"/>
<text text-anchor="middle" x="2255.39" y="-1563.75" font-family="Times,serif" font-size="14.00">Default</text>
</g>
<!-- 26&#45;&gt;8 -->
<g id="edge19" class="edge">
<title>26&#45;&gt;8</title>
<path fill="none" stroke="black" d="M2147.46,-1151.64C2142.3,-1282.84 2110.55,-2088.81 2104.04,-2254.23"/>
<polygon fill="black" stroke="black" points="2100.55,-2253.78 2103.66,-2263.91 2107.55,-2254.06 2100.55,-2253.78"/>
<text text-anchor="middle" x="2099.5" y="-1706.89" font-family="Times,serif" font-size="14.00">Default</text>
</g>
<!-- 26&#45;&gt;10 -->
<g id="edge21" class="edge">
<title>26&#45;&gt;10</title>
<path fill="none" stroke="black" d="M2317.58,-1127.5C2378.53,-1123.46 2446.18,-1118.29 2502.83,-1113.31"/>
<polygon fill="black" stroke="black" points="2502.85,-1116.82 2512.5,-1112.45 2502.23,-1109.85 2502.85,-1116.82"/>
<text text-anchor="middle" x="2383.96" y="-1124.36" font-family="Times,serif" font-size="14.00">Careful</text>
</g>
<!-- 26&#45;&gt;12 -->
<g id="edge23" class="edge">
<title>26&#45;&gt;12</title>
<path fill="none" stroke="black" d="M2165.18,-1151.71C2268.02,-1251.56 2806.04,-1732.89 2944.26,-1849.08"/>
<polygon fill="black" stroke="black" points="2941.7,-1851.5 2951.61,-1855.23 2946.19,-1846.13 2941.7,-1851.5"/>
<text text-anchor="middle" x="2530.72" y="-1487.1" font-family="Times,serif" font-size="14.00">Casual</text>
</g>
<!-- 26&#45;&gt;13 -->
<g id="edge25" class="edge">
<title>26&#45;&gt;13</title>
<path fill="none" stroke="black" d="M2182.29,-1151.72C2297.85,-1213.19 2674.49,-1413.54 2802.56,-1481.66"/>
<polygon fill="black" stroke="black" points="2800.6,-1484.58 2811.07,-1486.19 2803.88,-1478.4 2800.6,-1484.58"/>
<text text-anchor="middle" x="2468.42" y="-1320.64" font-family="Times,serif" font-size="14.00">Casual</text>
</g>
<!-- 26&#45;&gt;14 -->
<g id="edge27" class="edge">
<title>26&#45;&gt;14</title>
<path fill="none" stroke="black" d="M2224.25,-1150.31C2422.64,-1193.97 2954.79,-1311.06 3163.28,-1356.93"/>
<polygon fill="black" stroke="black" points="3162.46,-1360.33 3172.98,-1359.06 3163.96,-1353.5 3162.46,-1360.33"/>
<text text-anchor="middle" x="2669.77" y="-1257.57" font-family="Times,serif" font-size="14.00">Casual</text>
</g>
<!-- 26&#45;&gt;16 -->
<g id="edge31" class="edge">
<title>26&#45;&gt;16</title>
<path fill="none" stroke="black" d="M2126.33,-1151.68C2038.97,-1224.11 1714.49,-1493.1 1612.83,-1577.38"/>
<polygon fill="black" stroke="black" points="1610.87,-1574.46 1605.41,-1583.53 1615.34,-1579.85 1610.87,-1574.46"/>
<text text-anchor="middle" x="1843.33" y="-1368.48" font-family="Times,serif" font-size="14.00">Careful</text>
</g>
<!-- 26&#45;&gt;20 -->
<g id="edge37" class="edge">
<title>26&#45;&gt;20</title>
<path fill="none" stroke="black" d="M2040.92,-1148.3C1828.08,-1182.56 1356.23,-1266.44 1163.09,-1304.48"/>
<polygon fill="black" stroke="black" points="1162.5,-1301.03 1153.37,-1306.41 1163.86,-1307.9 1162.5,-1301.03"/>
<text text-anchor="middle" x="1575.76" y="-1213.09" font-family="Times,serif" font-size="14.00">Careful</text>
</g>
<!-- 26&#45;&gt;21 -->
<g id="edge39" class="edge">
<title>26&#45;&gt;21</title>
<path fill="none" stroke="black" d="M2152.75,-1115.14C2184.97,-985.25 2377.76,-208.08 2417.68,-47.15"/>
<polygon fill="black" stroke="black" points="2421.01,-48.27 2420.02,-37.72 2414.21,-46.58 2421.01,-48.27"/>
<text text-anchor="middle" x="2258.96" y="-585.1" font-family="Times,serif" font-size="14.00">Careful</text>
</g>
<!-- 26&#45;&gt;22 -->
<g id="edge40" class="edge">
<title>26&#45;&gt;22</title>
<path fill="none" stroke="black" d="M2166.08,-1115.54C2269.13,-1011.77 2786.23,-491.03 2908.68,-367.72"/>
<polygon fill="black" stroke="black" points="2910.86,-370.5 2915.42,-360.93 2905.89,-365.56 2910.86,-370.5"/>
<text text-anchor="middle" x="2511.13" y="-745.58" font-family="Times,serif" font-size="14.00">Careful</text>
</g>
<!-- 26&#45;&gt;23 -->
<g id="edge41" class="edge">
<title>26&#45;&gt;23</title>
<path fill="none" stroke="black" d="M2156.74,-1115.37C2199.54,-1024.35 2390.29,-618.68 2442.85,-506.91"/>
<polygon fill="black" stroke="black" points="2445.9,-508.65 2446.99,-498.11 2439.56,-505.67 2445.9,-508.65"/>
<text text-anchor="middle" x="2273.54" y="-815.09" font-family="Times,serif" font-size="14.00">Careful</text>
</g>
<!-- 26&#45;&gt;24 -->
<g id="edge42" class="edge">
<title>26&#45;&gt;24</title>
<path fill="none" stroke="black" d="M2200.11,-1115.94C2371.32,-1057.8 2917.58,-872.32 3104.15,-808.97"/>
<polygon fill="black" stroke="black" points="3105.09,-812.35 3113.43,-805.82 3102.84,-805.72 3105.09,-812.35"/>
<text text-anchor="middle" x="2625.88" y="-966.41" font-family="Times,serif" font-size="14.00">Careful</text>
</g>
<!-- 26&#45;&gt;25 -->
<g id="edge43" class="edge">
<title>26&#45;&gt;25</title>
<path fill="none" stroke="black" d="M2148.68,-1151.89C2150.69,-1224.03 2158.05,-1489.04 2160.53,-1578.42"/>
<polygon fill="black" stroke="black" points="2157.03,-1578.42 2160.81,-1588.31 2164.03,-1578.22 2157.03,-1578.42"/>
<text text-anchor="middle" x="2128.36" y="-1369.1" font-family="Times,serif" font-size="14.00">Careful</text>
</g>
<!-- 27 -->
<g id="node28" class="node">
<title>27</title>
<ellipse fill="none" stroke="black" cx="1895.24" cy="-87.69" rx="189.57" ry="18"/>
<text text-anchor="middle" x="1895.24" y="-83.01" font-family="Times,serif" font-size="14.00">Cryolitia &lt;liziyao@uniontech.com&gt;</text>
</g>
<!-- 26&#45;&gt;27 -->
<g id="edge53" class="edge">
<title>26&#45;&gt;27</title>
<path fill="none" stroke="black" d="M2143.78,-1115.42C2113.83,-991.56 1939.63,-271.24 1902.29,-116.83"/>
<polygon fill="black" stroke="black" points="1905.76,-116.3 1900.01,-107.4 1898.96,-117.94 1905.76,-116.3"/>
<text text-anchor="middle" x="1996.79" y="-620.07" font-family="Times,serif" font-size="14.00">Careful</text>
</g>
</g>
</svg>
